<svg xmlns="http://www.w3.org/2000/svg" xmlns:xlink="http://www.w3.org/1999/xlink" width="360" height="400" viewBox="0 0 360 400">
  <defs>
    <clipPath id="clip-Artboard_1">
      <rect width="360" height="400"/>
    </clipPath>
  </defs>
  <g id="Artboard_1" data-name="Artboard 1" clip-path="url(#clip-Artboard_1)">
    <path id="Path_6" data-name="Path 6" d="M246.744,137l-27.065,30.124c21.829,32.792,45.949,85.165,18.764,119.347,0,0,6.572,3.958,29.335,7.282,14.725,2.149,31.629,6.81,46.169,16.256C313.946,310.007,330.759,207.186,246.744,137Z" fill="#fff"/>
    <path id="Path_41" data-name="Path 41" d="M224.791,173.8l-4.2,107.613,9.331,8.828,12.158-8.828Z" transform="translate(2 -15)" fill="#faa625"/>
    <path id="Path_1" data-name="Path 1" d="M294.653,313.039c-.512-.15-55.07-21.1-80.364-7.58,10.683,10.855,43.618,48.619,35.876,63.736h-5.411c4.683-9.144-20.165-47.523-35.759-62.648l-3.006-2.917,3.418-2.443c26.9-19.249,85.631,6.495,87.951,7.184C297.358,308.37,306.065,307,294.653,313.039Z"/>
    <path id="Path_2" data-name="Path 2" d="M216.888,364.95c0-1.764,7.647-3.191,17.079-3.191s17.084,4.618,17.084,6.381-7.647.782-17.084.782-17.079-2.21-17.079-3.972"/>
    <path id="Path_3" data-name="Path 3" d="M305.382,310.007c-.688-.208-89.65-22.664-123.881-3.923,14.457,15.042,53.72,53.8,43.246,74.746h-7.323c6.337-12.67-21.981-52.278-43.088-73.24l-4.067-4.039,4.625-3.391c36.4-26.674,110.58-4.575,113.719-3.623C288.612,296.537,320.827,301.64,305.382,310.007Z"/>
    <path id="Path_4" data-name="Path 4" d="M179.713,374.948c0-2.442,10.35-4.423,23.115-4.423s23.116,6.4,23.116,8.842-10.348,1.086-23.116,1.086-23.115-3.064-23.115-5.505"/>
    <path id="Path_5" data-name="Path 5" d="M247.858,224.662a14.736,14.736,0,0,0,1.686-3.389,14.618,14.618,0,0,1-1.686,3.386l-10.185,5.059q.28,2,.517,4l.389.733S244.584,229.718,247.858,224.662Z" fill="none"/>
    <path id="Path_12" data-name="Path 12" d="M249.544,221.273a6.129,6.129,0,0,0,.25-3.341A6.128,6.128,0,0,1,249.544,221.273Z" fill="#fea621"/>
    <path id="Path_24" data-name="Path 24" d="M117.666,305.756l36.627-23.9,56.232-2.721,41.288,17.432Z" fill="#ccc"/>
    <path id="Path_25" data-name="Path 25" d="M117.666,305.756l-103.573-71.8,66.049-5.384,74.151,53.286Z" fill="#333"/>
    <ellipse id="Ellipse_2" data-name="Ellipse 2" cx="8.916" cy="14.434" rx="8.916" ry="14.434" transform="translate(94.787 262.397) rotate(-65.762)" fill="#3fe0ff"/>
    <path id="Path_26" data-name="Path 26" d="M71.36,286.608,18.1,249.917l43.6-3.555L95.54,270.834Z" fill="#3fffc4"/>
    <path id="Path_27" data-name="Path 27" d="M135.5,259.495,95.54,231.8l25.483-2.078,28.613,20.559Z" fill="#cce70b"/>
    <path id="Path_28" data-name="Path 28" d="M197.454,266.485s15.5,11.754,11.6,16.084c-6.045,6.718-11.6-16.084-11.6-16.084" fill="#edd59c"/>
    <path id="Path_29" data-name="Path 29" d="M197.568,265.559s8.633,36.8-2.239,30.55c-11.383-6.546,2.239-30.55,2.239-30.55" fill="#edd59c"/>
    <path id="Path_30" data-name="Path 30" d="M197.933,265.559s-8.539,25.322-16.548,25.416c-13.913.157,15.835-25.242,15.835-25.242" fill="#edd59c"/>
    <path id="Path_32" data-name="Path 32" d="M345.907,360.88c0,30.017-24.228,32.933-54.115,32.933s-54.118-2.916-54.118-32.933a54.117,54.117,0,1,1,108.233,0Z" fill="#636262"/>
    <path id="Path_33" data-name="Path 33" d="M247.812,373.486a42.269,42.269,0,0,0,.408,5.824c6.506,5.883,16.543,8.058,28.376,8.8.108-26.411,7.757-49.859,19.575-64.816A50.128,50.128,0,0,0,247.812,373.486Z" fill="#e8e7e2"/>
    <path id="Path_39" data-name="Path 39" d="M246.744,137,232.91,163.369c9.887,23.733,32.949,82.67,26.1,146.637,0,0,9.093,6.6,31.086,6.4,16.279-.627,23.855-6.4,23.855-6.4S330.759,207.186,246.744,137Z"/>
    <path id="Path_34" data-name="Path 34" d="M112.829,96.174q.253-1.655.568-3.35C113.188,93.957,113,95.071,112.829,96.174Z" fill="#edd59c"/>
    <path id="Path_35" data-name="Path 35" d="M112.823,96.209h0a.257.257,0,0,0,.006-.035A.257.257,0,0,1,112.823,96.209Z" fill="#3f280a"/>
    <path id="Path_36" data-name="Path 36" d="M113.4,92.824c.019-.09.034-.181.054-.272C113.432,92.644,113.416,92.734,113.4,92.824Z" fill="#3f280a"/>
    <path id="Path_37" data-name="Path 37" d="M-2.8,7.606,16.1,42.922,7.993,53.38l9.246,12.054L8.388,121.318S9.21,89.934,6.763,61.15A313.957,313.957,0,0,0-2.8,7.606Z" transform="translate(233.484 153.662) rotate(-9)" fill="#333"/>
    <path id="Path_13" data-name="Path 13" d="M115.36,129.172c-.439.243-.887.48-1.316.729a52.989,52.989,0,0,0,4.57,12.974c2.265,4.122,8.415,13.474,9.654,15.277-.252.091-.435.154-.435.154S141.964,174.9,141.964,174.9s-6.09,3.264-3.779,5.175c16.152,13.344,48.131,22.867,71.879,10.36,18.466-9.727,63.982-71.671,38.432-113.572S180.665,6.915,146.991,35.534c-46.969,39.922-33.613,94.709-33.613,94.709S114.257,129.761,115.36,129.172Z" fill="#edd59c"/>
    <path id="Path_14" data-name="Path 14" d="M248.165,69.749C209.833.634,124.443,13.2,112.823,96.209c78.049-24.409,71.968,37.066,140.96-6.814-1.314-10.957-2.863-13.642-5.618-19.646Z" fill="#bc8e30"/>
    <path id="Path_15" data-name="Path 15" d="M119.033,127.293C135.6,119.66,151.618,113.5,151.618,113.5s-1.43,34.952-17.992,42.583c-1.772.815-3.551,1.514-5.314,2.133-1.15-1.668-7.412-11.18-9.7-15.342a52.989,52.989,0,0,1-4.57-12.974c1.588-.923,3.244-1.805,4.988-2.608"/>
    <path id="Path_16" data-name="Path 16" d="M122.9,143.511c2.143,3.514,4.947,5.711,6.266,4.909s.651-4.3-1.494-7.818-4.949-5.712-6.266-4.906-.649,4.3,1.494,7.815" fill="#fff"/>
    <path id="Path_18" data-name="Path 18" d="M204.96,51.229a314.188,314.188,0,0,0,39.118,11.635c-24.7-37.213-71.205-54.331-100.14-27.33-20.767,19.382-28.569,42.255-31.116,60.675,4.452-1.313,11.378-3.76,22.058-8.037C172.621,73.058,174.024,40,204.96,51.229Z" fill="#3f280a"/>
    <path id="Path_40" data-name="Path 40" d="M204.561,261.172l-10.617,5.88s11.623,2.742,11.513,8.194l8.748-6.773Z" fill="#fff"/>
    <path id="Path_31" data-name="Path 31" d="M266.465,189.592l-6.561-7.4L247.3,240.6l-47.953,21.826s5.184,1.182,8.175,3.716a12.7,12.7,0,0,1,3.788,6.419l42-27.7Z"/>
  </g>
</svg>
