<?xml version="1.0" encoding="utf-8"?>
<!-- Generator: Adobe Illustrator 15.0.0, SVG Export Plug-In . SVG Version: 6.00 Build 0)  -->
<!DOCTYPE svg PUBLIC "-//W3C//DTD SVG 1.1//EN" "http://www.w3.org/Graphics/SVG/1.1/DTD/svg11.dtd">
<svg version="1.1" id="Layer_1" xmlns="http://www.w3.org/2000/svg" xmlns:xlink="http://www.w3.org/1999/xlink" x="0px" y="0px"
	 width="360px" height="400px" viewBox="0 0 360 400" enable-background="new 0 0 360 400" xml:space="preserve">
<g>
	<g>
		<g>
			<path d="M294.653,313.039c-0.512-0.15-55.07-21.104-80.364-7.58c10.683,10.855,43.618,48.619,35.876,63.736h-5.411
				c4.683-9.144-20.165-47.523-35.759-62.648l-3.006-2.917l3.418-2.443c26.895-19.249,85.631,6.495,87.951,7.184
				C297.358,308.37,306.065,307.001,294.653,313.039z"/>
		</g>
		<path d="M216.888,364.95c0-1.764,7.647-3.191,17.079-3.191c9.437,0,17.084,4.618,17.084,6.381c0,1.76-7.647,0.782-17.084,0.782
			C224.535,368.922,216.888,366.712,216.888,364.95"/>
		<g>
			<path d="M305.382,310.007c-0.688-0.208-89.65-22.664-123.881-3.923c14.457,15.042,53.72,53.798,43.246,74.746h-7.323
				c6.337-12.67-21.981-52.278-43.088-73.24l-4.067-4.039l4.625-3.391c36.396-26.674,110.58-4.575,113.719-3.623
				C288.612,296.537,320.827,301.64,305.382,310.007z"/>
		</g>
		
			<ellipse transform="matrix(0.9497 0.3132 -0.3132 0.9497 108.2727 -74.8339)" cx="287.042" cy="299.561" rx="27.395" ry="12.521"/>
		<path d="M179.713,374.948c0-2.442,10.35-4.423,23.115-4.423c12.769,0,23.116,6.4,23.116,8.842c0,2.443-10.348,1.086-23.116,1.086
			C190.062,380.453,179.713,377.389,179.713,374.948"/>
	</g>
	<g>
		<path fill="none" d="M247.858,224.662c0.735-1.131,1.323-2.276,1.686-3.389c-0.362,1.112-0.95,2.257-1.686,3.386l-10.185,5.059
			c0.187,1.333,0.359,2.668,0.517,4.004l0.389,0.733C238.579,234.455,244.584,229.718,247.858,224.662z"/>
		<path fill="#FD1A16" d="M250.889,137.236l-31.21,29.886c9.887,23.733,34.239,91.348,7.054,125.53c0,0,50.955-6.201,87.214,17.354
			C313.946,310.007,334.904,207.424,250.889,137.236z"/>
		<path fill="#FEA621" d="M250.005,260.192l3.778-26.859c-1.291,1.388-2.62,2.729-3.939,4.002L250.005,260.192z"/>
		<path fill="#A80505" d="M266.143,250.131l5.851,25.018C271.993,275.148,257.202,258.193,266.143,250.131"/>
		<path fill="#FFFFFF" d="M253.783,233.333c12.113-13.055,20.635-30.139-16.183-31.289l-1.284,10.618
			c4.741,0.083,8,0.708,10.147,1.703c1.983,0.921,2.991,2.159,3.33,3.567c0.251,1.038,0.132,2.17-0.25,3.341
			c-0.362,1.112-0.95,2.258-1.686,3.389c-3.274,5.056-9.279,9.793-9.279,9.793l-0.389-0.733c0.503,4.311,0.834,8.627,0.944,12.898
			c2.369-1.853,6.484-5.205,10.709-9.285C251.163,236.062,252.492,234.721,253.783,233.333z"/>
		<path fill="#FEA621" d="M249.544,221.273c0.382-1.171,0.501-2.303,0.25-3.341c-0.339-1.408-1.349-2.646-3.335-3.567l-10.745,3.991
			c0.756,3.742,1.419,7.542,1.96,11.361l10.185-5.059C248.594,223.53,249.182,222.386,249.544,221.273z"/>
		<path fill="#FEA621" d="M237.601,202.044l2.445-20.338l-7.915,20.281l-0.213,0.546c1.374,4.996,2.655,10.219,3.744,15.565
			l0.654-5.439L237.601,202.044z"/>
		<path fill="#FEA621" d="M249.544,221.273c0.382-1.171,0.501-2.303,0.25-3.341C250.045,218.971,249.926,220.103,249.544,221.273z"
			/>
	</g>
	<g>
		<path fill="#EDD59C" d="M115.36,129.172c-0.439,0.243-0.887,0.48-1.316,0.729c1.08,4.324,2.28,8.812,4.57,12.974
			c2.265,4.122,8.415,13.474,9.654,15.277c-0.252,0.091-0.435,0.154-0.435,0.154c0.005,0.003,14.131,16.592,14.131,16.592
			s-6.09,3.264-3.779,5.175c16.152,13.344,48.131,22.867,71.879,10.36c18.466-9.727,77.056-78.784,51.506-120.685
			c-25.55-41.902-80.905-62.833-114.579-34.214c-46.969,39.922-33.613,94.709-33.613,94.709S114.257,129.761,115.36,129.172z"/>
		<path fill="#BC8E30" d="M261.57,69.749c-42.129-69.115-135.976-56.553-148.747,26.46c85.779-24.409,79.096,37.066,154.921-6.814
			C267.744,78.236,264.597,75.753,261.57,69.749C260.322,67.273,265.269,75.815,261.57,69.749z"/>
		<path d="M119.033,127.293c16.562-7.633,32.585-13.792,32.585-13.792s-1.43,34.952-17.992,42.583
			c-1.772,0.815-3.551,1.514-5.314,2.133c-1.15-1.668-7.412-11.18-9.697-15.342c-2.29-4.162-3.49-8.65-4.57-12.974
			C115.633,128.978,117.289,128.096,119.033,127.293"/>
		<path fill="#FFFFFF" d="M122.903,143.511c2.143,3.514,4.947,5.711,6.266,4.909c1.316-0.807,0.651-4.305-1.494-7.818
			c-2.142-3.513-4.949-5.712-6.266-4.906C120.093,136.498,120.76,139.999,122.903,143.511"/>
		<path fill="#4D4D4D" d="M177.841,115.833c12.646,17.557,35.491,22.72,51.027,11.528c15.535-11.186,17.878-34.488,5.235-52.048
			c-12.644-17.556-35.491-22.723-51.028-11.53C167.54,74.971,165.197,98.273,177.841,115.833"/>
		<path fill="#3F280A" d="M213.997,51.229c19.081,6.305,33.755,9.791,42.955,11.635c-27.127-37.213-78.189-54.331-109.961-27.33
			c-22.804,19.382-31.371,42.255-34.168,60.675c4.889-1.313,12.494-3.76,24.221-8.037C178.486,73.058,180.026,40.002,213.997,51.229
			z"/>
		<path fill="#4D4D4D" d="M180.896,76.979c-0.077-2.542-4.974-6.595-11.504-11.14c-11.434-7.956-27.884-17.415-32.349-22.909
			c1.997-1.599,4.059-3.126,6.189-4.57c16.988,0.579,31.582,9.869,40.784,17.488c6.538,5.413,10.354,9.982,10.354,9.982
			S181.196,86.408,180.896,76.979"/>
		<path fill="#808080" d="M190.948,125.62c7.068,5.244,14.914,6.641,17.524,3.123c2.607-3.516-1.01-10.616-8.081-15.858
			c-7.072-5.245-9.387,2.875-11.994,6.388C185.789,122.788,183.875,120.375,190.948,125.62"/>
		<path fill="#FD1A16" d="M247.17,162.675c-7.848-37.117-20.822-64.667-65.194-71.949c-12.271-2.014-69.455-8.319-68.879-17.846
			c4.353-72.029,169.876-94.122,173.822-24.031C288.426,75.596,295.989,124.012,247.17,162.675
			C257.593,154.421,247.17,162.675,247.17,162.675"/>
		<path fill="#D31111" d="M247.17,162.675c44.666-35.376,42.134-78.898,40.228-106.536c-3.144,1.864-6.945,3.896-11.603,6.115
			c-22.283,10.629-43.194,27.613-54.631,45.668C235.688,121.014,242.388,140.062,247.17,162.675z"/>
		<path fill="#3F280A" d="M160.828,190.77c0,0,9.859,0.288,14.517,4.551c1.675-0.506,3.346-1.009,5.013-1.515
			c-0.374,0.627-0.492,1.438-0.3,2.152c2.631-0.771,5.391-0.728,8.098-1.014c6.283-0.657,12.415-3.16,17.6-7.17
			c-2.468,4.278-5.291,8.312-8.429,12.026c1.382-1.164,0.232,2.803,0.606,2.243c-3.989,8.255-13.476,5.977-20.254,11.636
			c-0.865-1.196-1.73-2.391-2.598-3.584c0.158,0.9-0.211,1.902-0.903,2.422c-0.582-1.105-1.608-1.913-2.749-2.159
			c-1.907,2.429,0.364,0.425-3.504-5.669s-9.248-9.548-11.672-16.522c1.357,0.354,2.717,0.705,4.067,1.055L160.828,190.77z"/>
	</g>
	<g>
		<g>
			<polygon fill="#CCCCCC" points="117.666,305.756 154.293,281.861 210.525,279.14 251.813,296.572 			"/>
		</g>
		<g>
			<polygon fill="#333333" points="117.666,305.756 14.093,233.959 80.142,228.575 154.293,281.861 			"/>
		</g>
		
			<ellipse transform="matrix(0.4105 -0.9118 0.9118 0.4105 -171.457 255.163)" fill="#3FE0FF" cx="111.625" cy="260.193" rx="8.916" ry="14.435"/>
		<g>
			<polygon fill="#3FFFC4" points="71.36,286.608 18.098,249.917 61.698,246.362 95.54,270.834 			"/>
		</g>
		<g>
			<polygon fill="#CCE70B" points="135.501,259.495 95.54,231.796 121.023,229.718 149.636,250.277 			"/>
		</g>
	</g>
	<g>
		<path fill="#EDD59C" d="M197.454,266.485c0,0,15.495,11.754,11.603,16.084C203.012,289.287,197.454,266.485,197.454,266.485"/>
		<path fill="#EDD59C" d="M197.568,265.559c0,0,8.633,36.8-2.239,30.55C183.946,289.563,197.568,265.559,197.568,265.559"/>
		<path fill="#EDD59C" d="M197.933,265.559c0,0-8.539,25.322-16.548,25.416c-13.913,0.157,15.835-25.242,15.835-25.242"/>
		<polygon fill="#EDD59C" points="266.465,189.592 263.582,193.738 282.929,223.099 197.22,265.732 200.481,271.905 
			294.653,223.325 		"/>
	</g>
	<g>
		<path fill="#636262" d="M345.907,360.88c0,30.017-24.228,32.933-54.115,32.933c-29.889,0-54.118-2.916-54.118-32.933
			c0-30.019,24.229-54.353,54.118-54.353C321.68,306.527,345.907,330.861,345.907,360.88z"/>
		<path fill="#E8E7E2" d="M247.812,373.486c0,2.093,0.158,4.009,0.408,5.824c6.506,5.883,16.543,8.058,28.376,8.801
			c0.108-26.411,7.757-49.859,19.575-64.816C269.319,324.177,247.812,346.302,247.812,373.486z"/>
	</g>
	<g>
		<path fill="#EDD59C" d="M112.829,96.174c0.169-1.103,0.359-2.219,0.568-3.35C113.188,93.957,112.998,95.071,112.829,96.174z"/>
		<path fill="#3F280A" d="M112.823,96.209L112.823,96.209c0.003-0.013,0.005-0.024,0.006-0.035
			C112.828,96.185,112.826,96.196,112.823,96.209z"/>
		<path fill="#3F280A" d="M113.397,92.824c0.019-0.09,0.034-0.181,0.054-0.272C113.432,92.644,113.416,92.734,113.397,92.824z"/>
	</g>
</g>
</svg>
