<svg xmlns="http://www.w3.org/2000/svg" xmlns:xlink="http://www.w3.org/1999/xlink" width="380" height="440" viewBox="0 0 380 440">
  <defs>
    <clipPath id="clip-Artboard_1">
      <rect width="380" height="440"/>
    </clipPath>
  </defs>
  <g id="Artboard_1" data-name="Artboard 1" clip-path="url(#clip-Artboard_1)">
    <path id="Path_30" data-name="Path 30" d="M116.135,209.021l-23.867,5.1L65.734,168.238l27.923-10.08Z" transform="translate(0 -7)" fill="#00a0c6"/>
    <path id="Path_52" data-name="Path 52" d="M5.774,0C8.947,0,11.52,2.91,11.52,6.5S8.947,13,5.774,13,.66,7.209.66,3.619,2.6,0,5.774,0Z" transform="translate(85 201)" fill="#fff"/>
    <path id="Path_1" data-name="Path 1" d="M366.259,259.908,248.7,212.724c-6.476-2.6-16.6-1.171-22.651,3.209L12.945,370.092c-6.054,4.38-5.7,10.014.782,12.611l117.649,47.224c6.481,2.6,16.6,1.172,22.656-3.208l213.1-154.159C373.1,268.142,372.736,262.508,366.259,259.908Zm-48.066-14.413c.951.382.991,1.212.088,1.865a3.879,3.879,0,0,1-3.342.488c-.952-.384-.99-1.211-.087-1.863A3.867,3.867,0,0,1,318.193,245.495Zm-32.542-12.248,26.008,10.439-1.9,1.372-26.006-10.439ZM142.523,420.427,22.745,371.788,231.872,220.506l119.78,48.642Z" fill="#ccc"/>
    <path id="Path_2" data-name="Path 2" d="M142.523,420.427,22.745,371.788,231.872,220.506l119.78,48.641Z" fill="#81cccc"/>
    <path id="Path_3" data-name="Path 3" d="M247.191,344.712,53.922,349.233,38.629,360.3,231.9,355.773Z" fill="#bf08b2"/>
    <path id="Path_4" data-name="Path 4" d="M69.687,337.83,55.508,348.087l-1.586,1.146,193.269-4.521,1.588-1.147,14.178-10.258Z" fill="#05a1eb"/>
    <path id="Path_5" data-name="Path 5" d="M86.028,326.009,70.8,337.022l-1.114.808,193.27-4.523,1.115-.8L279.3,321.485Z" fill="#fdf505"/>
    <path id="Path_6" data-name="Path 6" d="M101.207,315.03,86.564,325.621l-.536.388L279.3,321.485l.535-.386,14.641-10.592Z" fill="#fe9808"/>
    <path id="Path_7" data-name="Path 7" d="M118.085,302.817,102.908,313.8l-1.7,1.233,193.27-4.523,1.7-1.233L311.357,298.3Z" fill="#fb1b0c"/>
    <path id="Path_8" data-name="Path 8" d="M160.908,293.392c-2.416-11.8-31.912-15.188-42.215-3.35L135.582,256.2l47.648,6.562Z" transform="translate(1)"/>
    <path id="Path_9" data-name="Path 9" d="M183.23,262.758S121.415,333.844,166.164,380.7h-8.341s-44.465-53.718,19.722-117.938Z"/>
    <path id="Path_10" data-name="Path 10" d="M140.539,262.758S74.28,333.332,116.1,379.848h-8.342s-41.1-53.332,27.1-117.09Z"/>
    <path id="Path_11" data-name="Path 11" d="M128.4,394.2c-.932-2.049,6.982-7.657,17.68-12.533s21.812-3.466,22.746-1.419-8.257,4.861-18.956,9.74-20.538,6.26-21.47,4.212"/>
    <path id="Path_12" data-name="Path 12" d="M81.57,387.067c-.629-2.132,6.76-6.906,16.5-10.666s19.3-1.224,19.924.908-7.62,4-17.368,7.757-18.431,4.133-19.06,2"/>
    <path id="Path_14" data-name="Path 14" d="M255.662,305.411l-9.088-12.578,19.751-27.187,13.015,13.583Z" fill="#fff"/>
    <path id="Path_15" data-name="Path 15" d="M205.474,285.527l9.457,9.73L201.3,321.273l-12.981-10.094Z" transform="translate(-5 5)" fill="#fff"/>
    <path id="Path_17" data-name="Path 17" d="M115.1,140.975h53.063C219.594,186.137,228.371,298.2,228.371,298.2s-17.877-19.764-48.732-26.632-69.26,0-69.26,0C147.686,241.275,115.1,140.975,115.1,140.975Z"/>
    <path id="Path_22" data-name="Path 22" d="M220.209,153.383c-3.356,22.458-20.346,45.161-20.346,45.161l-34.291-25.607-3.357-12.459,36.143,29.375s14.475-28.962,9.48-42.56c0,0,6.494-1.891,9.4-.835S220.209,153.383,220.209,153.383Z" transform="translate(13 -12)"/>
    <path id="Path_23" data-name="Path 23" d="M239.371,108.653a3.117,3.117,0,0,0-3.938-1.081l-1.738.865a3.738,3.738,0,0,1,2.2,1.73,3.194,3.194,0,0,1,.115,3.354l2.433-1.188A2.845,2.845,0,0,0,239.371,108.653Z" transform="translate(12 -11.553)"/>
    <path id="Path_26" data-name="Path 26" d="M185.148,138.412s6.256-.114,7.184-.578a3.843,3.843,0,0,0-2.318-5.215l-.346.232C188.045,133.546,185.148,138.412,185.148,138.412Z" transform="translate(13 -12)" fill="#d6ba74"/>
    <path id="Path_46" data-name="Path 46" d="M-1.4,6.181,26.881,45.251l-12.466,8.33,12.466,13.07L8.388,121.318Z" transform="translate(148.484 140.662) rotate(-9)" fill="#333"/>
    <path id="Path_51" data-name="Path 51" d="M0,115.137,16.765,80.4,8.879,72.053l10.26-8.46L13.285,21.675Z" transform="translate(168.394 257.552) rotate(163)" fill="#333"/>
    <path id="Path_48" data-name="Path 48" d="M133.632,158.158s15.147,56.639,10.661,76.461-10.661,28.912-10.661,28.912L172.8,273.1s10.486-33.9-4.824-76.682-20.109-50.936-20.109-50.936Z" fill="#fff"/>
    <path id="Path_54" data-name="Path 54" d="M139.242,156.452s17.21,61.768,79.091,48.745c9.377-1.973,33.74-8.552,33.74-8.552l-1.828-14.66H231.281s-49.858,30.12-77.08-13.955c-5.011-9.613-5.327-17.414-5.327-17.414Z" transform="translate(-3 1)" fill="#faa625"/>
    <path id="Path_36" data-name="Path 36" d="M188.436,82.581c0,40.666-26.867,82.145-63.6,82.145-9.745,0-62.508-39.459-62.508-80.241s23.1-75.593,59.713-75.593c36.728,0,66.391,33.022,66.391,73.689" fill="#edd59c"/>
    <path id="Path_38" data-name="Path 38" d="M133.168,9.935l2.9,44.722S150.2,44.115,172.445,68.794c6.141,6.719,11.355,9.036,15.873,8.8C186.232,43.3,163.061,15.5,133.168,9.935Z" fill="#bc8e30"/>
    <path id="Path_39" data-name="Path 39" d="M62.768,75.628A44.531,44.531,0,0,0,78.83,86.866c24.446,9.385,53.063-6.14,63.84-34.643a60.217,60.217,0,0,0,1.738-39.16,60.015,60.015,0,0,0-22.363-4.286C89.953,8.892,65.733,33.313,62.768,75.628Z" fill="#3f280a"/>
    <path id="Path_42" data-name="Path 42" d="M90.532,126.144S97.6,112.008,115.79,105.29s36.611,0,36.611,0-13.672,57.119-61.869,20.854"/>
    <path id="Path_43" data-name="Path 43" d="M121.813,126.26c0,3.938-4.4,7.067-9.847,7.067s-9.85-3.129-9.85-7.067,4.4-7.067,9.85-7.067,9.847,3.129,9.847,7.067" fill="#fff"/>
    <path id="Path_44" data-name="Path 44" d="M133.632,90.227s-12.744,2.665-21.55,5.561c-8.922,2.9-21.088,8.227-21.088,8.227s18.771-22.941,42.638-13.788" fill="#e5b96c"/>
    <path id="Path_13" data-name="Path 13" d="M238.264,272.575l-15.428-1.724-6.867-32.889,18.806-.518Z" transform="translate(-4 1)" fill="#fff"/>
    <path id="Path_49" data-name="Path 49" d="M224.47,129.012c-5.277,9.422-1.914,12.672,5.321,11.346S229.747,119.59,224.47,129.012Z" transform="translate(491.157 132.225) rotate(149)" fill="#fff"/>
    <path id="Path_50" data-name="Path 50" d="M224.47,129.012c-5.277,9.422-1.914,12.672,5.321,11.346S229.747,119.59,224.47,129.012Z" transform="translate(489.157 126.225) rotate(149)" fill="#edd59c"/>
    <path id="Path_24" data-name="Path 24" d="M214.577,144.783s-9.036-21.665-4.056-26.067c8.805-7.762,4.056,26.067,4.056,26.067" transform="translate(13 -12)" fill="#edd59c"/>
    <path id="Path_25" data-name="Path 25" d="M192.1,134.473a3.839,3.839,0,0,1,.115,3.36h0l43.562-23.984a4.341,4.341,0,0,0-.115-3.591,4.988,4.988,0,0,0-2.2-1.855l-43.679,24.1A4.856,4.856,0,0,1,192.1,134.473Z" transform="translate(13 -12)" fill="#00a0c6"/>
    <path id="Path_27" data-name="Path 27" d="M213.883,142.931s-14.137,5.676-15.293-1.739c-1.739-11.47,15.293,1.739,15.293,1.739" transform="translate(13 -12)" fill="#edd59c"/>
    <path id="Path_28" data-name="Path 28" d="M214.229,144.553S188.741,124.973,199.052,123c10.774-2.085,15.177,21.551,15.177,21.551" transform="translate(13 -12)" fill="#edd59c"/>
    <path id="Path_29" data-name="Path 29" d="M96.578,209.585c-5.177,3.741-11.441-3.574-11.441-3.574,8.691,30.883,31.257,24.963,32.161,24.982,0,0,12.761-29.7,11.609-40.323s-13.582,36.56-13.582,36.56-16.553.364-18.746-17.645"/>
    <path id="Path_31" data-name="Path 31" d="M82.767,198.594s1.389-28.967,5.444-17.5c4.057,11.239-3.938,20.044-3.938,20.044Z" transform="translate(0 -7)" fill="#edd59c"/>
    <path id="Path_32" data-name="Path 32" d="M84.273,201.142s12.281-31.861,13.438-19.7c1.392,15.178-11.7,22.71-11.7,22.71Z" transform="translate(0 -7)" fill="#edd59c"/>
    <path id="Path_33" data-name="Path 33" d="M85.895,204.155s23.4-21.782,18.77-10.545C98.758,207.746,87.4,206.7,87.4,206.7Z" transform="translate(0 -7)" fill="#edd59c"/>
    <path id="Path_53" data-name="Path 53" d="M5.774,0C8.947,0,11.52,2.91,11.52,6.5S8.947,13,5.774,13,.66,7.209.66,3.619,2.6,0,5.774,0Z" transform="translate(85 194)" fill="#edd59c"/>
    <path id="Path_34" data-name="Path 34" d="M85.315,211.569l-23.867,4.983,4.286-48.314,27.923-10.08Z" transform="translate(0 -7)" fill="#4ccad8"/>
  </g>
</svg>
