<?xml version="1.0" encoding="utf-8"?>
<!-- Generator: Adobe Illustrator 15.0.0, SVG Export Plug-In . SVG Version: 6.00 Build 0)  -->
<!DOCTYPE svg PUBLIC "-//W3C//DTD SVG 1.1//EN" "http://www.w3.org/Graphics/SVG/1.1/DTD/svg11.dtd">
<svg version="1.1" id="Layer_1" xmlns="http://www.w3.org/2000/svg" xmlns:xlink="http://www.w3.org/1999/xlink" x="0px" y="0px"
	 width="380px" height="440px" viewBox="0 0 380 440" enable-background="new 0 0 380 440" xml:space="preserve">
<g>
	<path fill="#CCCCCC" d="M366.259,259.908L248.7,212.724c-6.476-2.599-16.597-1.171-22.651,3.209L12.945,370.092
		c-6.054,4.38-5.697,10.014,0.782,12.611l117.649,47.224c6.481,2.598,16.6,1.172,22.656-3.208L367.137,272.56
		C373.096,268.142,372.736,262.508,366.259,259.908z M318.193,245.495c0.951,0.382,0.991,1.212,0.088,1.865s-2.389,0.87-3.342,0.488
		c-0.952-0.384-0.99-1.211-0.087-1.863C315.756,245.33,317.239,245.112,318.193,245.495z M285.651,233.247l26.008,10.439
		l-1.899,1.372l-26.006-10.439L285.651,233.247z M142.523,420.427L22.745,371.788l209.127-151.282l119.78,48.642L142.523,420.427z"
		/>
	<polygon fill="#81CCCC" points="142.523,420.427 22.745,371.788 231.872,220.506 351.652,269.147 	"/>
	<g>
		<polygon fill="#BF08B2" points="247.191,344.712 53.922,349.233 38.629,360.298 231.898,355.773 		"/>
		<polygon fill="#05A1EB" points="69.687,337.83 55.508,348.087 53.922,349.233 247.191,344.712 248.779,343.565 262.957,333.307 		
			"/>
		<polygon fill="#FDF505" points="86.028,326.009 70.801,337.022 69.687,337.83 262.957,333.307 264.072,332.502 279.301,321.485 		
			"/>
		<polygon fill="#FE9808" points="101.207,315.03 86.564,325.621 86.028,326.009 279.301,321.485 279.836,321.099 294.477,310.507 
					"/>
		<polygon fill="#FB1B0C" points="118.085,302.817 102.908,313.797 101.207,315.03 294.477,310.507 296.18,309.274 311.357,298.296 
					"/>
	</g>
	<g>
		<g>
			<path d="M160.908,293.392c-2.416-11.802-31.912-15.188-42.215-3.35l16.889-33.846l47.648,6.562L160.908,293.392z"/>
			<path d="M183.23,262.758c0,0-61.815,71.086-17.066,117.938h-8.341c0,0-44.465-53.718,19.722-117.938H183.23z"/>
			<path d="M140.539,262.758c0,0-66.259,70.574-24.442,117.09h-8.342c0,0-41.103-53.332,27.101-117.09H140.539z"/>
			<path d="M128.395,394.201c-0.932-2.049,6.982-7.657,17.68-12.533c10.697-4.877,21.812-3.466,22.746-1.419
				c0.932,2.048-8.257,4.861-18.956,9.74C139.17,394.864,129.327,396.249,128.395,394.201"/>
			<path d="M81.57,387.067c-0.629-2.132,6.76-6.906,16.504-10.666c9.745-3.761,19.295-1.224,19.924,0.908
				c0.629,2.131-7.62,3.996-17.368,7.757C90.889,388.826,82.199,389.199,81.57,387.067"/>
		</g>
		<g>
			<polygon fill="#FFFFFF" points="238.264,272.575 222.836,270.851 215.969,237.962 234.775,237.444 			"/>
			<polygon fill="#FFFFFF" points="255.662,305.411 246.574,292.833 266.325,265.646 279.34,279.229 			"/>
			<polygon fill="#FFFFFF" points="205.474,285.527 214.931,295.257 201.299,321.273 188.318,311.179 			"/>
		</g>
		<g>
			<path fill="#EDD59C" d="M113.717,227.218l25.154-59.706l3.387,3.874l-24.961,59.608L113.717,227.218z"/>
			<path fill="#FD1A16" d="M115.095,140.975h53.063c51.436,45.162,26.41,141.301,26.41,141.301l-72-19.28
				C159.875,232.699,115.095,140.975,115.095,140.975z"/>
			<g>
				<path fill="#FFFFFF" d="M154.799,201.188c0.115,0.02,0.344,0.058,0.439,0.188l6.809-7.092
					c-4.516-1.804-9.852-3.625-16.121-5.486l2.367,19.77l6.393-6.692L154.799,201.188z"/>
				<path fill="#FEA621" d="M157.442,244.842l11.442-19.479c-1.406,0.705-2.911,1.278-4.302,1.87L157.442,244.842z"/>
				<path fill="#FFFFFF" d="M166.336,196.05l-4.332,7.738c3.617,1.539,5.945,3.099,7.241,4.486c2.976,3.312,0.978,6.152-2.218,8.442
					c-4.113,2.843-10.28,4.64-10.28,4.64l-0.423-3.827l-6.78,0.523l1.635,13.538c0,0,6.245-1.551,13.271-4.263
					c1.39-0.592,2.894-1.164,4.304-1.871C182.382,219.021,194.332,208.551,166.336,196.05"/>
				<path fill="#FEA621" d="M169.245,208.274l-9.695-0.311l2.34-4.195l4.332-7.738l8.345-14.942l-12.499,13.081l-6.811,7.095
					l-0.419,0.4l-6.393,6.692l-9.797,10.24l10.934-0.776l6.781-0.521l10.684-0.699C170.205,214.542,172.221,211.586,169.245,208.274
					"/>
			</g>
			<path fill="#EDD59C" d="M212.955,132.041c7.994,8.458-13.092,66.503-13.092,66.503l-25.488-27.343l5.559-4.287l18.424,22.94
				c0,0,15.871-53.064,9.965-59.319L212.955,132.041z"/>
			<g>
				<path d="M239.371,108.751c-0.81-1.39-2.548-1.854-3.938-1.158l-1.738,0.926c0.928,0.232,1.621,0.927,2.201,1.853
					c0.694,1.159,0.694,2.551,0.115,3.592l2.433-1.273C239.604,111.879,240.067,110.141,239.371,108.751z"/>
				<path fill="#EDD59C" d="M214.577,144.783c0,0-9.036-21.665-4.056-26.067C219.326,110.954,214.577,144.783,214.577,144.783"/>
				<path fill="#00A0C6" d="M192.102,134.473c0.576,1.042,0.576,2.434,0.115,3.36l0,0l43.562-23.984
					c0.463-1.043,0.463-2.431-0.115-3.591c-0.463-0.812-1.275-1.391-2.203-1.855l-43.679,24.099
					C190.827,132.851,191.521,133.662,192.102,134.473z"/>
				<path fill="#D6BA74" d="M185.148,138.412c0,0,6.256-0.114,7.184-0.578c0.465-1.043,0.465-2.318-0.115-3.36
					c-0.464-0.927-1.39-1.623-2.203-1.855l-0.346,0.232C188.045,133.546,185.148,138.412,185.148,138.412z"/>
			</g>
			<path fill="#EDD59C" d="M213.883,142.931c0,0-14.137,5.676-15.293-1.739C196.851,129.722,213.883,142.931,213.883,142.931"/>
			<path fill="#EDD59C" d="M214.229,144.553c0,0-25.488-19.58-15.177-21.551C209.826,120.917,214.229,144.553,214.229,144.553"/>
			<path fill="#EDD59C" d="M90.039,203.243l-4.742-1.843c8.691,30.883,31.096,29.574,32,29.593l-1.973-3.763
				C115.143,227.377,98.151,228.211,90.039,203.243"/>
			<polygon fill="#00A0C6" points="116.135,209.021 92.268,214.119 65.734,168.238 93.657,158.158 			"/>
			<path fill="#EDD59C" d="M82.767,198.594c0,0,1.389-28.967,5.444-17.496c4.057,11.239-3.938,20.044-3.938,20.044L82.767,198.594z"
				/>
			<path fill="#EDD59C" d="M84.273,201.142c0,0,12.281-31.861,13.438-19.696c1.392,15.178-11.701,22.71-11.701,22.71L84.273,201.142
				z"/>
			<path fill="#EDD59C" d="M85.895,204.155c0,0,23.404-21.782,18.77-10.545c-5.907,14.136-17.262,13.092-17.262,13.092
				L85.895,204.155z"/>
			<polygon fill="#4CCAD8" points="85.315,211.569 61.448,216.552 65.734,168.238 93.657,158.158 			"/>
		</g>
		<g>
			<path fill="#4D4D4D" d="M57.512,115.833c7.53,13.208,23.055,22.478,29.195,19.001c6.027-3.36,4.867-16.917-2.547-30.24
				C76.744,91.27,65.737,83.275,59.712,86.751C53.572,90.227,50.096,102.508,57.512,115.833"/>
			<path fill="#EDD59C" d="M188.436,82.581c0,40.666-26.867,82.145-63.596,82.145c-9.745,0-69.182-41.363-69.182-82.145
				c0-40.785,29.773-73.689,66.387-73.689C158.773,8.892,188.436,41.914,188.436,82.581"/>
			<path fill="#3F280A" d="M117.871,161.339c-0.89-0.89-1.779-1.778-2.669-2.766c5.337,0.098,10.574,0.592,15.712,1.58
				c1.186-0.592,2.373-1.283,3.559-1.877c-0.098,0.396,0.099,0.791,0.492,1.088c1.879-0.988,4.053-1.582,6.129-2.373
				c4.84-1.777,8.892-4.347,11.756-7.51c-0.59,2.57-1.578,5.139-2.864,7.709c0.692-0.89,1.68-1.68,2.966-2.273
				c0.492,0.197,0.394,0.691,0.197,0.986c-0.197,0.297-0.594,0.692-0.496,0.99c0.101,0.395,0.988,0.494,1.188,0.198
				c-0.495,4.841-2.668,9.584-6.227,13.933c-1.088-0.396-2.174-0.792-3.26-1.088c0.395,0.397,0.494,0.988,0.1,1.385
				c-0.792-0.397-1.879-0.594-2.866-0.397c-0.692,1.582-1.68,3.164-2.767,4.646c-3.164-0.691-5.732-2.371-6.721-4.447
				c-0.393-0.79-0.591-1.581-1.383-2.272c-0.691-0.496-1.678-0.791-2.667-1.086c-5.435-1.582-10.376-3.855-14.626-6.623
				c1.187-0.098,2.373-0.295,3.558-0.394L117.871,161.339z"/>
			<path fill="#BC8E30" d="M133.168,9.935l2.898,44.722c0,0,14.135-10.542,36.379,14.137c6.141,6.719,11.355,9.036,15.873,8.804
				C186.232,43.304,163.061,15.496,133.168,9.935z"/>
			<path fill="#3F280A" d="M57.047,67.866c4.982,8.572,12.283,15.409,21.783,19c24.446,9.385,53.063-6.14,63.84-34.643
				c5.098-13.324,5.444-27.226,1.738-39.16c-6.953-2.781-14.484-4.286-22.363-4.286C89.953,8.892,63.188,34.266,57.047,67.866z"/>
			<path fill="#4D4D4D" d="M202.105,81.536c0,18.076-10.775,36.613-18.999,36.613c-8.228,0-14.948-14.599-14.948-32.671
				c0-18.076,6.721-32.674,14.948-32.674C191.33,52.805,202.105,63.462,202.105,81.536"/>
			<path fill="#4D4D4D" d="M176.039,56.743c-11.473-22.361-33.022-37.307-57.701-37.307c-26.185,0-48.895,16.915-59.668,41.477
				c-1.043,3.824-1.854,7.88-2.318,11.935c9.153-27.576,31.979-46.923,58.743-46.923c24.446,0,45.534,16.219,56.076,39.854
				C172.561,61.957,174.184,58.944,176.039,56.743"/>
			<path d="M90.532,126.144c0,0,7.067-14.136,25.258-20.854c18.19-6.719,36.611,0,36.611,0S138.729,162.409,90.532,126.144"/>
			<path fill="#FFFFFF" d="M121.813,126.26c0,3.938-4.401,7.067-9.847,7.067c-5.446,0-9.85-3.129-9.85-7.067
				c0-3.938,4.403-7.067,9.85-7.067C117.412,119.193,121.813,122.322,121.813,126.26"/>
			<path fill="#E5B96C" d="M133.632,90.227c0,0-12.744,2.665-21.55,5.561c-8.922,2.897-21.088,8.227-21.088,8.227
				S109.765,81.074,133.632,90.227"/>
			<path fill="#808080" d="M188.549,60.914C192.258,65.316,195.27,72.5,195.27,82c0,11.355-4.17,22.942-9.037,28.966
				c6.025-3.244,12.398-16.106,12.398-28.502C198.746,71.458,193.766,63.926,188.549,60.914z"/>
		</g>
	</g>
</g>
</svg>
