<?xml version="1.0" encoding="utf-8"?>
<!-- Generator: Adobe Illustrator 15.0.0, SVG Export Plug-In . SVG Version: 6.00 Build 0)  -->
<!DOCTYPE svg PUBLIC "-//W3C//DTD SVG 1.1//EN" "http://www.w3.org/Graphics/SVG/1.1/DTD/svg11.dtd">
<svg version="1.1" id="Layer_1" xmlns="http://www.w3.org/2000/svg" xmlns:xlink="http://www.w3.org/1999/xlink" x="0px" y="0px"
	 width="250px" height="260px" viewBox="0 0 250 260" enable-background="new 0 0 250 260" xml:space="preserve">
<g>
	<path fill="#FFFF00" d="M245,137.143c0,66.276-53.726,120.002-120,120.002c-66.275,0-120-53.726-120-120.002
		C5,70.87,58.725,17.144,125,17.144C191.274,17.144,245,70.87,245,137.143z"/>
	<path fill="#FFE300" d="M168.627,25.325c-8.211-3.206-16.861-5.533-25.837-6.867L37.575,172.519l155.716-37.004l-18.65,110.909
		c5.106-2.322,10.02-4.994,14.713-7.981l51.244-133.595c-2.401-8.613-5.738-16.836-9.896-24.552l-86.816,13.48L168.627,25.325z"/>
	<g>
		<path d="M110.756,223.42c-1.666,8.699-2.815,20.134-3.6,32.396c1.468,0.22,2.947,0.399,4.433,0.563
			c1.215-13.898,2.928-25.973,5.157-32.812C114.75,223.531,112.756,223.488,110.756,223.42z"/>
		<path d="M147.966,223.567c2.094,6.422,3.731,17.455,4.93,30.282c1.496-0.356,2.979-0.741,4.452-1.154
			c-0.775-11.071-1.867-21.317-3.391-29.275C151.957,223.488,149.963,223.531,147.966,223.567z"/>
	</g>
	<g>
		<path d="M154.656,252.796c-14.567-3.927-36.779-2.674-46.472,3.759c0.536-12.526,1.384-23.9,2.541-32.795
			c13.422-0.238,27.058-0.285,40.565-0.14C152.822,228.926,153.944,239.61,154.656,252.796"/>
		<path fill="#FD1A16" d="M194.747,91.326c0,41.108-30.756,66.621-71.428,66.621c-40.667,0-75.859-25.513-75.859-66.621
			c0-41.111,32.973-88.471,73.644-88.471S194.747,50.215,194.747,91.326"/>
		<path fill="#A80505" d="M185.926,89.203c0,36.015-27.214,65.381-63.205,65.381c-35.984,0-67.125-29.366-67.125-65.381
			c0-36.014,29.176-65.208,65.165-65.208S185.926,53.189,185.926,89.203"/>
		<polygon fill="#FD1A16" points="170.604,236.845 94.075,239.71 98.707,125.869 144.545,125.869 		"/>
		<path fill="#FFFFFF" d="M120.617,181.008c0.146,0.021,0.282,0.042,0.425,0.064l4.798-7.027c-4.078-0.899-8.864-1.72-14.46-2.433
			l4.842,16.519l4.527-6.629L120.617,181.008z"/>
		<path fill="#FEA621" d="M128.954,217.79l7.001-18.235c-1.128,0.767-2.277,1.489-3.408,2.172L128.954,217.79z"/>
		<path fill="#FFFFFF" d="M129.668,174.976l-2.617,7.24c3.312,0.826,5.501,1.794,6.841,2.839c3.035,2.362,1.738,5.108-0.686,7.454
			c-3.12,3.019-8.101,5.367-8.101,5.367l-0.862-3.233l-5.714,1.362l3.303,11.267c0,0,5.136-2.197,10.715-5.546
			c1.131-0.68,2.28-1.405,3.408-2.17C146.574,192.359,155.323,181.746,129.668,174.976"/>
		<path fill="#FEA621" d="M133.892,185.055l-8.255,1.071l1.415-3.908l2.617-7.242l5.015-13.879l-8.844,12.948l-4.797,7.027
			l-0.294,0.43l-4.527,6.629l-6.868,10.056l9.175-2.182l5.716-1.362l8.961-2.133C135.632,190.163,136.926,187.417,133.892,185.055"
			/>
		<g>
			<polygon fill="#EDD59C" points="94.771,180.333 84.391,215.184 112.369,213.815 112.592,218.385 78.165,220.067 90.275,179.404 
							"/>
			<polygon fill="#FD1A16" points="90.275,179.404 97.939,153.669 102.323,154.974 94.771,180.333 			"/>
		</g>
		<g>
			<polygon fill="#FD1A16" points="157.843,178.271 145.937,155.375 149.995,153.266 161.814,175.993 			"/>
			<polygon fill="#EDD59C" points="161.814,175.993 181.918,214.656 146.557,217.236 146.166,212.677 174.697,210.685 
				157.843,178.271 			"/>
		</g>
		<path fill="#EDD59C" d="M178.4,87.834c0,35.141-23.928,56.949-55.571,56.949s-59.022-21.809-59.022-56.949
			c0-35.142,25.653-63.63,57.297-63.63C152.748,24.204,178.4,52.692,178.4,87.834"/>
		<path fill="#3F280A" d="M94.445,31.513c4.629,7.603,17.849,13.092,33.446,13.092c11.352,0,21.439-2.908,27.88-7.42
			c-9.625-8.14-21.635-12.98-34.668-12.98C111.476,24.204,102.409,26.854,94.445,31.513z"/>
		<path fill="#3F280A" d="M108.574,132.313l-1.517-4.213c4.837,1.299,9.514,3.188,13.882,5.61c1.278-0.564,2.556-1.129,3.833-1.69
			c-0.217,0.488-0.196,1.073,0.062,1.555c2.015-0.872,4.247-1.185,6.392-1.725c4.974-1.25,9.567-3.775,13.182-7.25
			c-1.384,3.324-3.09,6.521-5.089,9.53c0.95-0.996,2.116-1.794,3.407-2.335c0.376,0.342,0.175,0.95-0.143,1.331
			c-0.315,0.383-0.741,0.743-0.765,1.236c-0.021,0.494,0.769,0.92,0.991,0.478c-2.045,6.318-5.562,12.167-10.222,16.999
			c-0.869-0.733-1.739-1.469-2.609-2.203c0.258,0.616,0.102,1.365-0.384,1.822c-0.626-0.71-1.57-1.151-2.529-1.185
			c-1.19,1.955-2.534,3.82-4.016,5.576c-2.656-1.576-4.475-4.405-4.738-7.37c-0.098-1.108-0.005-2.276-0.524-3.276
			c-0.451-0.864-1.29-1.473-2.08-2.071c-4.432-3.354-8.243-7.47-11.194-12.082c1.145,0.075,2.289,0.154,3.433,0.232L108.574,132.313
			z"/>
		<path d="M89.77,69.425c0,0,19.956,7.104,34.422,9.046c14.464,1.94,35.156-0.084,35.156-0.084S119.19,126.994,89.77,69.425"/>
		<path fill="#E5B96C" d="M108.056,67.832c0,0,11.076,1.843,19.101,2.345c8.03,0.504,19.512-0.022,19.512-0.022
			S124.383,82.756,108.056,67.832"/>
		<path fill="#FFFFFF" d="M116.215,83.864c-0.88,1.806-3.63,2.278-6.146,1.054c-2.514-1.224-3.84-3.683-2.962-5.486
			c0.879-1.809,3.63-2.278,6.146-1.054C115.767,79.602,117.095,82.058,116.215,83.864"/>
		<path fill="#4D4D4D" d="M121.104,32.676c31.039,0,56.295,25.486,57.252,57.293c0.02-0.709,0.045-1.414,0.045-2.135
			c0-35.142-25.652-63.631-57.297-63.631c-31.644,0-57.297,28.489-57.297,63.631c0,0.675,0.027,1.337,0.049,2.003
			C64.878,58.093,90.109,32.676,121.104,32.676"/>
		<g>
			<path fill="#4D4D4D" d="M168.982,84.493c0,12.944-1.213,23.436,5.896,23.436c3.255,0,6.955-2.813,10.019-7.089
				c0.667-3.701,1.029-7.577,1.029-11.637c0-6.42-0.942-12.615-2.669-18.475c-2.434-2.012-5.206-3.096-7.682-3.096
				c-4.259,0-5.066,4.359-5.159,10.756c-0.082-8.223,0.174-14.186,5.159-14.186c1.972,0,4.131,0.687,6.159,1.977
				c-0.493-1.307-1.032-2.591-1.605-3.856c-1.77-0.823-3.571-1.265-5.251-1.265C167.77,61.059,168.982,71.55,168.982,84.493z"/>
			<path fill="#4D4D4D" d="M68.437,117.309c7.019,0.503,5.983-9.729,5.729-22.854c-0.254-13.123,0.367-24.171-6.652-24.673
				c-3.334-0.238-7.107,1.257-10.132,4.278c-0.438,1.839-0.808,3.706-1.084,5.603c2.691-4.21,6.902-6.351,10.505-6.093
				c2.705,0.193,4.052,2.263,4.747,5.498c-0.939-1.024-2.231-1.642-4.017-1.738c-3.859-0.208-8.3,1.338-11.498,4.402
				c-0.28,2.454-0.438,4.942-0.438,7.471c0,8.369,1.699,15.989,4.731,22.772C62.974,115.104,65.865,117.126,68.437,117.309z"/>
			<path fill="#808080" d="M175.575,64.203c-4.985,0-5.241,5.963-5.159,14.186c0.093-6.396,0.9-10.756,5.159-10.756
				c2.476,0,5.248,1.084,7.682,3.096c-0.454-1.542-0.96-3.058-1.522-4.549C179.706,64.89,177.547,64.203,175.575,64.203z"/>
			<path fill="#808080" d="M67.532,77.33c1.785,0.097,3.077,0.714,4.017,1.738c-0.695-3.235-2.042-5.305-4.747-5.498
				c-3.603-0.258-7.813,1.883-10.505,6.093c-0.102,0.686-0.184,1.375-0.263,2.069C59.232,78.668,63.673,77.122,67.532,77.33z"/>
		</g>
	</g>
</g>
</svg>
