<?xml version="1.0" encoding="utf-8"?>
<!-- Generator: Adobe Illustrator 15.0.0, SVG Export Plug-In . SVG Version: 6.00 Build 0)  -->
<!DOCTYPE svg PUBLIC "-//W3C//DTD SVG 1.1//EN" "http://www.w3.org/Graphics/SVG/1.1/DTD/svg11.dtd">
<svg version="1.1" id="Layer_1" xmlns="http://www.w3.org/2000/svg" xmlns:xlink="http://www.w3.org/1999/xlink" x="0px" y="0px"
	 width="250px" height="260px" viewBox="0 0 250 260" enable-background="new 0 0 250 260" xml:space="preserve">
<g>
	<circle fill="#555" cx="125" cy="137.723" r="120"/>
	<path fill="#666" d="M205.296,48.552L100.901,64.763l16.924-46.819c-16.327,0.963-31.775,5.189-45.704,12.038L5.426,127.641
		C5.148,130.966,5,134.327,5,137.723c0,1.103,0.018,2.202,0.047,3.298l145.261-34.52l-25.429,151.221
		c0.041,0,0.081,0.002,0.122,0.002c0.956,0,1.908-0.014,2.858-0.036l79.492-207.239C206.674,49.809,205.989,49.176,205.296,48.552z"
		/>
	<g>
		<polygon points="78.395,176.469 81.547,184.566 57.086,198.931 107.122,220.299 102.605,224.274 46.966,199.59 		"/>
		<polygon points="166.551,172.458 165.87,181.121 210.948,175.241 151.723,222.722 157.196,225.22 223.102,171.807 		"/>
		<polygon fill="#FD1A16" points="76.566,82.575 159.951,80.147 154.903,176.469 98.142,176.469 		"/>
		<path fill="#FFFFFF" d="M113.269,134.411c0.144,0.022,0.278,0.041,0.421,0.063l4.771-6.985c-4.055-0.896-8.814-1.711-14.376-2.419
			l4.813,16.422l4.5-6.593L113.269,134.411z"/>
		<path fill="#FEA621" d="M121.556,170.976l6.961-18.128c-1.123,0.759-2.266,1.481-3.392,2.156L121.556,170.976z"/>
		<path fill="#FFFFFF" d="M122.268,128.41l-2.605,7.2c3.293,0.822,5.468,1.784,6.804,2.823c3.017,2.349,1.728,5.079-0.684,7.409
			c-3.102,3-8.054,5.338-8.054,5.338l-0.857-3.216l-5.68,1.351l3.284,11.206c0,0,5.105-2.188,10.649-5.517
			c1.126-0.675,2.269-1.397,3.392-2.156C139.071,145.691,147.771,135.144,122.268,128.41"/>
		<path fill="#FEA621" d="M126.465,138.433l-8.208,1.062l1.405-3.886l2.605-7.2l4.984-13.795l-8.791,12.874l-4.771,6.985
			l-0.291,0.425l-4.5,6.591l-6.829,9.998l9.122-2.173l5.682-1.351l8.909-2.122C128.193,143.512,129.482,140.782,126.465,138.433"/>
		<polygon fill="#CCCCCC" points="182.573,216.045 72.554,223.238 76.566,168.826 168.654,166.511 		"/>
		<polygon fill="#333333" points="182.573,216.045 72.554,223.238 55.021,256.516 205.635,245.198 		"/>
		<polygon fill="#B3B3B3" points="173.58,210.291 81.549,215.527 83.474,186.084 164.936,181.959 		"/>
		<polygon fill="#B3B3B3" points="139.107,180 110.966,181.603 111.553,172.6 136.465,171.338 		"/>
		<polygon fill="#FFFFFF" points="176.047,219.71 80.095,225.375 68.039,245.198 191.615,238.823 		"/>
		<path fill="#EDD59C" d="M175.422,65.533c0,34.935-23.787,56.614-55.245,56.614c-31.459,0-58.676-21.68-58.676-56.614
			c0-34.938,25.5-63.257,56.96-63.257C149.919,2.276,175.422,30.595,175.422,65.533"/>
		<path fill="#BC8E30" d="M118.461,2.276c-31.46,0-56.96,28.319-56.96,63.257c0,1.526,0.068,3.023,0.173,4.503
			c2.882,0.403,6.128-0.46,9.748-3.241c18.598-14.294,33.299,4.553,33.299,4.553s46.163,3.784,50.362-1.286
			c4.199-5.071,13.61-1.752,13.61-1.752l6.439-9.175C172.244,27.204,147.975,2.276,118.461,2.276z"/>
		<path fill="#3F280A" d="M161.621,24.276c-10.445-13.462-25.898-22-43.16-22c-6.932,0-13.574,1.379-19.715,3.896
			c-3.441,8.883-5.445,19.438-5.445,30.772c0,31.581,15.488,57.184,34.592,57.184c19.104,0,34.592-25.603,34.592-57.184
			C162.484,32.589,162.179,28.353,161.621,24.276z"/>
		<path fill="#4D4D4D" d="M188.204,59.383c0,12.867-9.218,26.124-16.284,26.124c-7.065,0-5.859-10.428-5.859-23.295
			c0-12.869-1.206-23.3,5.859-23.3C178.986,38.913,188.204,46.516,188.204,59.383"/>
		<path fill="#4D4D4D" d="M49.505,67.192c0.254,13.047,9.616,27.144,16.597,27.643c6.977,0.499,5.95-9.673,5.697-22.72
			c-0.254-13.05,0.364-24.031-6.615-24.529C58.206,47.087,49.251,54.144,49.505,67.192"/>
		<path fill="#808080" d="M170.914,47.498c4.87,0,10.583,2.114,14.554,5.951c-2.754-6.447-8.409-10.092-13.053-10.092
			c-2.792,0-4.155,1.801-4.809,4.8C168.497,47.74,169.568,47.498,170.914,47.498z"/>
		<path fill="#808080" d="M65.474,56.034c1.795,0.099,3.112,0.713,4.091,1.719c-0.775-3.018-2.195-4.923-4.855-5.111
			c-4.604-0.332-10.159,3.034-12.664,9.507C55.431,57.922,60.856,55.782,65.474,56.034z"/>
		<path d="M85.915,89.952c0,0,19.839,7.06,34.22,8.991c14.38,1.932,34.948-0.083,34.948-0.083S115.164,147.182,85.915,89.952"/>
		<path fill="#FFFFFF" d="M113.123,112.271c-0.875,1.795-3.611,2.263-6.112,1.046c-2.499-1.217-3.816-3.659-2.943-5.455
			c0.871-1.796,3.607-2.264,6.106-1.047C112.675,108.031,113.996,110.476,113.123,112.271"/>
		<path fill="#4D4D4D" d="M69.341,61.217c11.245-14.702,29.467-24.27,50.057-24.27s38.81,9.567,50.056,24.27h4.128
			c-10.548-19.491-30.854-32.69-54.184-32.69s-43.637,13.199-54.182,32.69H69.341z"/>
		<path fill="#EDD59C" d="M152.735,172.587c0,0,13.686,14.728,10.245,20.154C157.645,201.16,152.735,172.587,152.735,172.587"/>
		<path fill="#EDD59C" d="M153.425,171.304c0,0,5.573,26.973-2.211,22.496C143.062,189.113,153.425,171.304,153.425,171.304"/>
		<path fill="#EDD59C" d="M153.245,170.976c0,0-6.281,19.081-12.015,19.148C131.266,190.238,153.245,170.976,153.245,170.976"/>
		<polygon fill="#EDD59C" points="172.681,128.755 170.617,131.723 201.311,140.118 150.582,173.408 154.903,176.469 
			209.705,138.877 		"/>
		<polygon fill="#FD1A16" points="153.185,123.423 152.284,126.714 170.615,131.723 172.681,128.755 		"/>
		<path fill="#EDD59C" d="M101.415,168.244c0,0-10.697,17.017-6.307,21.707C101.918,197.227,101.415,168.244,101.415,168.244"/>
		<path fill="#EDD59C" d="M100.497,167.107c0,0-0.445,27.543,6.37,21.689C114,182.674,100.497,167.107,100.497,167.107"/>
		<path fill="#EDD59C" d="M100.613,166.752c0,0,9.73,17.579,15.374,16.571C125.799,181.576,100.613,166.752,100.613,166.752"/>
		<polygon fill="#EDD59C" points="73.646,128.895 76.227,131.429 47.639,145.398 103.683,168.641 100.008,172.458 39.158,145.746 		
			"/>
		<polygon fill="#FD1A16" points="91.803,120.024 93.301,123.088 76.227,131.429 73.646,128.895 		"/>
	</g>
</g>
</svg>
