<?xml version="1.0" encoding="utf-8"?>
<!-- Generator: Adobe Illustrator 15.0.0, SVG Export Plug-In . SVG Version: 6.00 Build 0)  -->
<!DOCTYPE svg PUBLIC "-//W3C//DTD SVG 1.1//EN" "http://www.w3.org/Graphics/SVG/1.1/DTD/svg11.dtd">
<svg version="1.1" id="Layer_1" xmlns="http://www.w3.org/2000/svg" xmlns:xlink="http://www.w3.org/1999/xlink" x="0px" y="0px"
	 width="250px" height="260px" viewBox="0 0 250 260" enable-background="new 0 0 250 260" xml:space="preserve">
<g>
	<circle fill="#CCC" cx="125" cy="137.724" r="120"/>
	<path fill="#DDD" d="M109.613,18.703c-8.657,1.108-17.023,3.145-25.001,5.996L5.053,141.192
		c0.438,15.406,3.777,30.085,9.494,43.51l108.91-25.881l-16.406,97.566c4.599,0.689,9.285,1.114,14.039,1.267l60.314-157.241
		l-107.354,16.67L109.613,18.703z"/>
	<path d="M154.518,250.16c-5.49-11.967-34.971-11.967-40.461,0v-35.888h40.461V250.16z"/>
	<g>
		<path d="M114.057,214.272v42.935c1.185,0.106,2.374,0.197,3.568,0.271c0.375-17.712,1.194-33.585,2.463-43.206H114.057z"/>
		<path d="M148.485,214.272c1.206,9.151,2.006,23.959,2.404,40.621c1.214-0.268,2.429-0.534,3.628-0.837v-39.784H148.485z"/>
	</g>
	<path fill="#EDD59C" d="M92.158,204.343l-3.322-2.239c0,0,3.828-13.48,7.665-28.342c1.919-7.428,3.838-14.858,5.284-20.431
		c0.722-2.788,1.327-5.109,1.751-6.737c0.911-3.473,1.052-4.01,2.556-3.818l-0.215,1.702l1.63,0.526
		C107.142,146.224,97.307,184.35,92.158,204.343"/>
	<polygon fill="#FD1A16" points="173.892,227.24 101.994,227.24 101.994,116.266 147.83,116.266 	"/>
	<path fill="#FFFFFF" d="M117.938,176.796c0.145,0.02,0.281,0.041,0.424,0.063l4.8-7.028c-4.079-0.898-8.866-1.719-14.461-2.431
		l4.841,16.517l4.528-6.63L117.938,176.796z"/>
	<path fill="#FEA621" d="M126.274,213.577l7.001-18.236c-1.13,0.765-2.279,1.491-3.41,2.171L126.274,213.577z"/>
	<path fill="#FFFFFF" d="M126.988,170.761l-2.619,7.241c3.313,0.828,5.502,1.795,6.843,2.84c3.034,2.362,1.737,5.109-0.687,7.452
		c-3.121,3.019-8.103,5.367-8.103,5.367l-0.86-3.231l-5.715,1.359l3.303,11.271c0,0,5.136-2.198,10.715-5.548
		c1.13-0.68,2.279-1.406,3.409-2.171C143.894,188.144,152.644,177.53,126.988,170.761"/>
	<path fill="#FEA621" d="M131.212,180.842l-8.254,1.068l1.412-3.905l2.619-7.244l5.016-13.878l-8.844,12.948l-4.799,7.028
		l-0.293,0.428l-4.528,6.63l-6.867,10.057l9.175-2.185l5.715-1.359l8.961-2.136C132.95,185.951,134.245,183.204,131.212,180.842"/>
	<path fill="#4D4D4D" d="M52.338,94.557c6.444,11.457,19.903,19.426,25.131,16.484c5.228-2.941,4.242-14.612-2.203-26.066
		C68.823,73.518,59.36,66.613,54.132,69.554C48.905,72.495,45.894,83.1,52.338,94.557"/>
	<path fill="#EDD59C" d="M165.323,65.906c0,35.142-17.211,70.866-48.854,70.866c-31.645,0-65.741-35.725-65.741-70.866
		S76.381,2.275,108.025,2.275C139.67,2.275,165.323,30.765,165.323,65.906"/>
	<path fill="#BC8E30" d="M117.605,3.177l2.483,38.601c0,0,12.201-9.146,31.412,12.197c5.26,5.841,9.821,7.795,13.673,7.56
		C163.366,31.998,143.423,8.006,117.605,3.177z"/>
	<path fill="#3F280A" d="M51.867,53.234c4.254,7.414,10.642,13.264,18.766,16.372c21.062,8.061,45.752-5.312,55.149-29.868
		c4.417-11.542,4.667-23.498,1.506-33.766c-6.021-2.388-12.503-3.697-19.263-3.697C80.288,2.275,57.156,24.164,51.867,53.234z"/>
	<path fill="#4D4D4D" d="M177.085,65.023c0,15.576-9.272,31.628-16.384,31.628c-7.106,0-12.871-12.628-12.871-28.205
		c0-15.579,5.765-28.206,12.871-28.206C167.812,40.24,177.085,49.443,177.085,65.023"/>
	<path fill="#3F280A" d="M101.925,133.676c-0.888-0.921-1.776-1.842-2.665-2.763c5.381,0.076,10.745,0.611,15.922,1.581
		c1.188-0.633,2.377-1.267,3.565-1.896c-0.101,0.389,0.073,0.809,0.462,1.107c1.881-0.984,4.129-1.604,6.228-2.371
		c4.868-1.781,9.012-4.416,11.895-7.557c-0.593,2.64-1.553,5.243-2.866,7.765c0.734-0.885,1.748-1.666,2.957-2.283
		c0.48,0.179,0.424,0.652,0.191,0.984c-0.23,0.329-0.584,0.666-0.48,1.025c0.104,0.358,1.038,0.523,1.156,0.167
		c-0.512,4.911-2.68,9.747-6.302,14.053c-1.097-0.376-2.192-0.751-3.288-1.124c0.428,0.397,0.455,0.965,0.064,1.379
		c-0.835-0.4-1.934-0.551-2.94-0.403c-0.741,1.617-1.665,3.199-2.76,4.726c-3.175-0.666-5.798-2.382-6.834-4.471
		c-0.387-0.778-0.589-1.636-1.388-2.264c-0.69-0.543-1.721-0.833-2.701-1.124c-5.483-1.634-10.516-3.919-14.778-6.721
		c1.213-0.147,2.428-0.293,3.642-0.441L101.925,133.676z"/>
	<path fill="#4D4D4D" d="M154.635,43.57c-9.853-19.253-28.472-32.247-49.837-32.247c-22.647,0-42.221,14.595-51.524,35.774
		c-0.926,3.33-1.598,6.781-2.023,10.319c7.946-23.671,27.683-40.442,50.789-40.442c21.077,0,39.35,13.96,48.428,34.377
		C151.582,48.147,153.002,45.483,154.635,43.57"/>
	<path d="M80.818,103.515c0,0,6.121-12.23,21.832-18.009c15.711-5.777,31.636,0,31.636,0S122.354,134.791,80.818,103.515"/>
	<path fill="#FFFFFF" d="M107.815,103.578c0,3.352-3.787,6.07-8.461,6.07c-4.671,0-8.46-2.719-8.46-6.07
		c0-3.355,3.79-6.074,8.46-6.074C104.028,97.504,107.815,100.223,107.815,103.578"/>
	<path fill="#EDD59C" d="M181.799,123.616c6.887,7.321-11.271,57.359-11.271,57.359l-22.043-23.597l4.787-3.667l15.916,19.831
		c0,0,13.72-45.752,8.598-51.198L181.799,123.616z"/>
	<path fill="#EDD59C" d="M182.566,132.989c0,0-20.101-2.205-21.053-8.6C160.035,114.477,182.566,132.989,182.566,132.989"/>
	<path fill="#EDD59C" d="M182.885,134.42c0,0-21.983-16.858-13.112-18.575C179.056,114.048,182.885,134.42,182.885,134.42"/>
	<path fill="#EDD59C" d="M183.239,134.553c0,0-7.774-18.657-3.453-22.478C187.298,105.435,183.239,134.553,183.239,134.553"/>
	<polygon fill="#80C41C" points="212.676,194.701 199.363,193.213 193.438,164.828 209.666,164.384 	"/>
	<polygon fill="#40A629" points="218.937,222.79 211.095,211.934 228.138,188.471 239.37,200.197 	"/>
	<polygon fill="#CCE70B" points="193.511,219.894 201.671,228.289 189.907,250.74 178.705,242.029 	"/>
	<path fill="#EDD59C" d="M88.56,172.509l-2.174-3.766c-10.754,25.455,4.962,36.734,5.581,37.205l0.693-3.558
		C92.535,202.298,80.618,193.688,88.56,172.509"/>
	<polygon fill="#00A0C6" points="112.048,172.622 91.374,176.955 68.509,137.352 92.602,128.692 	"/>
	<path fill="#EDD59C" d="M83.168,163.582c0,0,1.157-24.965,4.698-15.081c3.476,9.706-3.414,17.304-3.414,17.304L83.168,163.582z"/>
	<path fill="#EDD59C" d="M84.453,165.805c0,0,10.564-27.491,11.555-17.037c1.244,13.115-10.079,19.595-10.079,19.595L84.453,165.805
		z"/>
	<path fill="#EDD59C" d="M85.929,168.362c0,0,20.23-18.771,16.186-9.078c-5.075,12.159-14.92,11.271-14.92,11.271L85.929,168.362z"
		/>
	<path fill="#E5B96C" d="M118.009,72.509c0,0-10.984,2.327-18.641,4.786c-7.66,2.455-18.159,7.134-18.159,7.134
		S97.365,64.571,118.009,72.509"/>
	<path fill="#808080" d="M165.441,47.193c3.248,3.761,5.794,9.975,5.794,18.176c0,9.817-3.646,19.836-7.784,24.956
		c5.175-2.812,10.709-13.853,10.709-24.619C174.16,56.315,169.95,49.825,165.441,47.193z"/>
</g>
</svg>
