<?xml version="1.0" encoding="utf-8"?>
<!-- Generator: Adobe Illustrator 23.0.1, SVG Export Plug-In . SVG Version: 6.00 Build 0)  -->
<svg version="1.1" id="Layer_1" xmlns="http://www.w3.org/2000/svg" xmlns:xlink="http://www.w3.org/1999/xlink" x="0px" y="0px"
	 viewBox="0 0 250 260" style="enable-background:new 0 0 250 260;" xml:space="preserve">
<style type="text/css">
	.st0{fill:#CCCCCC;}
	.st1{fill:#DDDDDD;}
	.st2{fill:#EDD59C;}
	.st3{fill:#FD1A16;}
	.st4{fill:#FFFFFF;}
	.st5{fill:#FEA621;}
	.st6{fill:#4D4D4D;}
	.st7{fill:#BC8E30;}
	.st8{fill:#3F280A;}
	.st9{fill:#E2305F;}
	.st10{fill:#D6BA74;}
	.st11{fill:#D13F8C;}
	.st12{fill:#40A629;}
	.st13{fill:#E5DF0E;}
	.st14{fill:#00A0C6;}
	.st15{fill:#4CCAD8;}
	.st16{fill:#E5B96C;}
	.st17{fill:#808080;}
</style>
<g>
	<circle class="st0" cx="125" cy="137.7" r="120"/>
	<path class="st1" d="M109.6,18.7c-8.7,1.1-17,3.1-25,6L5.1,141.2c0.4,15.4,3.8,30.1,9.5,43.5l108.9-25.9l-16.4,97.6
		c4.6,0.7,9.3,1.1,14,1.3l60.3-157.2L74.1,117.1L109.6,18.7z"/>
	<path d="M154.5,250.2c-5.5-12-35-12-40.5,0v-35.9h40.5V250.2z"/>
	<g>
		<path d="M114.1,214.3v42.9c1.2,0.1,2.4,0.2,3.6,0.3c0.4-17.7,1.2-33.6,2.5-43.2H114.1z"/>
		<path d="M148.5,214.3c1.2,9.2,2,24,2.4,40.6c1.2-0.3,2.4-0.5,3.6-0.8v-39.8L148.5,214.3L148.5,214.3z"/>
	</g>
	<path class="st2" d="M92.2,204.3l-3.3-2.2c0,0,3.8-13.5,7.7-28.3c1.9-7.4,3.8-14.9,5.3-20.4c0.7-2.8,1.3-5.1,1.8-6.7
		c0.9-3.5,1.1-4,2.6-3.8l-0.2,1.7l1.6,0.5C107.1,146.2,97.3,184.4,92.2,204.3"/>
	<polygon class="st3" points="173.9,227.2 102,227.2 102,116.3 147.8,116.3 	"/>
	<path class="st4" d="M117.9,176.8c0.1,0,0.3,0,0.4,0.1l4.8-7c-4.1-0.9-8.9-1.7-14.5-2.4l4.8,16.5l4.5-6.6L117.9,176.8z"/>
	<path class="st5" d="M126.3,213.6l7-18.2c-1.1,0.8-2.3,1.5-3.4,2.2L126.3,213.6z"/>
	<path class="st4" d="M127,170.8l-2.6,7.2c3.3,0.8,5.5,1.8,6.8,2.8c3,2.4,1.7,5.1-0.7,7.5c-3.1,3-8.1,5.4-8.1,5.4l-0.9-3.2l-5.7,1.4
		l3.3,11.3c0,0,5.1-2.2,10.7-5.5c1.1-0.7,2.3-1.4,3.4-2.2C143.9,188.1,152.6,177.5,127,170.8"/>
	<path class="st5" d="M131.2,180.8l-8.3,1.1l1.4-3.9l2.6-7.2l5-13.9l-8.8,12.9l-4.8,7l-0.3,0.4l-4.5,6.6l-6.9,10.1l9.2-2.2l5.7-1.4
		l9-2.1C132.9,186,134.2,183.2,131.2,180.8"/>
	<path class="st6" d="M52.3,94.6C58.8,106,72.2,114,77.5,111c5.2-2.9,4.2-14.6-2.2-26.1c-6.4-11.5-15.9-18.4-21.1-15.4
		C48.9,72.5,45.9,83.1,52.3,94.6"/>
	<path class="st2" d="M165.3,65.9c0,35.1-17.2,70.9-48.9,70.9c-31.6,0-65.7-35.7-65.7-70.9S76.4,2.3,108,2.3
		C139.7,2.3,165.3,30.8,165.3,65.9"/>
	<path class="st7" d="M117.6,3.2l2.5,38.6c0,0,12.2-9.1,31.4,12.2c5.3,5.8,9.8,7.8,13.7,7.6C163.4,32,143.4,8,117.6,3.2z"/>
	<path class="st8" d="M51.9,53.2c4.3,7.4,10.6,13.3,18.8,16.4c21.1,8.1,45.8-5.3,55.1-29.9c4.4-11.5,4.7-23.5,1.5-33.8
		c-6-2.4-12.5-3.7-19.3-3.7C80.3,2.3,57.2,24.2,51.9,53.2z"/>
	<path class="st6" d="M177.1,65c0,15.6-9.3,31.6-16.4,31.6c-7.1,0-12.9-12.6-12.9-28.2s5.8-28.2,12.9-28.2
		C167.8,40.2,177.1,49.4,177.1,65"/>
	<path class="st8" d="M101.9,133.7c-0.9-0.9-1.8-1.8-2.7-2.8c5.4,0.1,10.7,0.6,15.9,1.6c1.2-0.6,2.4-1.3,3.6-1.9
		c-0.1,0.4,0.1,0.8,0.5,1.1c1.9-1,4.1-1.6,6.2-2.4c4.9-1.8,9-4.4,11.9-7.6c-0.6,2.6-1.6,5.2-2.9,7.8c0.7-0.9,1.7-1.7,3-2.3
		c0.5,0.2,0.4,0.7,0.2,1s-0.6,0.7-0.5,1c0.1,0.4,1,0.5,1.2,0.2c-0.5,4.9-2.7,9.7-6.3,14.1c-1.1-0.4-2.2-0.8-3.3-1.1
		c0.4,0.4,0.5,1,0.1,1.4c-0.8-0.4-1.9-0.6-2.9-0.4c-0.7,1.6-1.7,3.2-2.8,4.7c-3.2-0.7-5.8-2.4-6.8-4.5c-0.4-0.8-0.6-1.6-1.4-2.3
		c-0.7-0.5-1.7-0.8-2.7-1.1c-5.5-1.6-10.5-3.9-14.8-6.7c1.2-0.1,2.4-0.3,3.6-0.4L101.9,133.7z"/>
	<path class="st6" d="M154.6,43.6c-9.9-19.3-28.5-32.2-49.8-32.2c-22.6,0-42.2,14.6-51.5,35.8c-0.9,3.3-1.6,6.8-2,10.3
		C59.2,33.7,78.9,17,102,17c21.1,0,39.3,14,48.4,34.4C151.6,48.1,153,45.5,154.6,43.6"/>
	<path d="M80.8,103.5c0,0,6.1-12.2,21.8-18s31.6,0,31.6,0S122.4,134.8,80.8,103.5"/>
	<path class="st4" d="M107.8,103.6c0,3.4-3.8,6.1-8.5,6.1s-8.5-2.7-8.5-6.1s3.8-6.1,8.5-6.1S107.8,100.2,107.8,103.6"/>
	<path class="st2" d="M181.8,123.6c6.9,7.3-11.3,57.4-11.3,57.4l-22-23.6l4.8-3.7l15.9,19.8c0,0,13.7-45.8,8.6-51.2L181.8,123.6z"/>
	<g>
		<path class="st9" d="M204.6,103.5c-0.7-1.2-2.2-1.6-3.4-1l-1.5,0.8c0.8,0.2,1.4,0.8,1.9,1.6c0.6,1,0.6,2.2,0.1,3.1l2.1-1.1
			C204.8,106.2,205.2,104.7,204.6,103.5z"/>
		<path class="st2" d="M183.2,134.6c0,0-7.8-18.7-3.5-22.5C187.3,105.4,183.2,134.6,183.2,134.6"/>
		<path d="M163.8,125.7c0.5,0.9,0.5,2.1,0.1,2.9l0,0l37.6-20.7c0.4-0.9,0.4-2.1-0.1-3.1c-0.4-0.7-1.1-1.2-1.9-1.6L161.8,124
			C162.7,124.3,163.3,125,163.8,125.7z"/>
		<path class="st10" d="M157.8,129.1c0,0,5.4-0.1,6.2-0.5c0.4-0.9,0.4-2-0.1-2.9c-0.4-0.8-1.2-1.4-1.9-1.6l-0.3,0.2
			C160.3,124.9,157.8,129.1,157.8,129.1z"/>
	</g>
	<path class="st2" d="M182.6,133c0,0-12.2,4.9-13.2-1.5C167.9,121.6,182.6,133,182.6,133"/>
	<path class="st2" d="M182.9,134.4c0,0-22-16.9-13.1-18.6C179.1,114,182.9,134.4,182.9,134.4"/>
	<polygon class="st11" points="212.7,194.7 199.4,193.2 193.4,164.8 209.7,164.4 	"/>
	<polygon class="st12" points="218.9,222.8 211.1,211.9 228.1,188.5 239.4,200.2 	"/>
	<polygon class="st13" points="193.5,219.9 201.7,228.3 189.9,250.7 178.7,242 	"/>
	<path class="st2" d="M88.6,172.5l-2.2-3.8c-10.8,25.5,5,36.7,5.6,37.2l0.7-3.6C92.5,202.3,80.6,193.7,88.6,172.5"/>
	<polygon class="st14" points="112,172.6 91.4,177 68.5,137.4 92.6,128.7 	"/>
	<path class="st2" d="M83.2,163.6c0,0,1.2-25,4.7-15.1c3.5,9.7-3.4,17.3-3.4,17.3L83.2,163.6z"/>
	<path class="st2" d="M84.5,165.8c0,0,10.6-27.5,11.6-17c1.2,13.1-10.1,19.6-10.1,19.6L84.5,165.8z"/>
	<path class="st2" d="M85.9,168.4c0,0,20.2-18.8,16.2-9.1c-5.1,12.2-14.9,11.3-14.9,11.3L85.9,168.4z"/>
	<polygon class="st15" points="85.4,174.8 64.8,179.1 68.5,137.4 92.6,128.7 	"/>
	<path class="st16" d="M118,72.5c0,0-11,2.3-18.6,4.8c-7.7,2.5-18.2,7.1-18.2,7.1S97.4,64.6,118,72.5"/>
	<path class="st17" d="M165.4,47.2c3.2,3.8,5.8,10,5.8,18.2c0,9.8-3.6,19.8-7.8,25c5.2-2.8,10.7-13.9,10.7-24.6
		C174.2,56.3,169.9,49.8,165.4,47.2z"/>
</g>
</svg>
