<?xml version="1.0" encoding="utf-8"?>
<!-- Generator: Adobe Illustrator 23.0.1, SVG Export Plug-In . SVG Version: 6.00 Build 0)  -->
<svg version="1.1" id="Layer_1" xmlns="http://www.w3.org/2000/svg" xmlns:xlink="http://www.w3.org/1999/xlink" x="0px" y="0px"
	 viewBox="0 0 148 260" style="enable-background:new 0 0 148 260;" xml:space="preserve">
<style type="text/css">
	.st0{fill:#CCCCCC;}
</style>
<path class="st0" d="M135.7,0H12.3C5.5,0,0,5.4,0,12.1v235.8c0,6.7,5.5,12.1,12.3,12.1h123.5c6.8,0,12.3-5.4,12.3-12.1V12.1
	C148,5.4,142.5,0,135.7,0z M89.8,4.8c1,0,1.8,0.8,1.8,1.8s-0.8,1.8-1.8,1.8S88,7.6,88,6.6S88.8,4.8,89.8,4.8z M56.4,5.6h27.3v2.1
	H56.4V5.6z M139.9,245.7L139.9,245.7H8.2V14.3h131.7V245.7z"/>
</svg>
