<?xml version="1.0" encoding="utf-8"?>
<!-- Generator: Adobe Illustrator 23.0.1, SVG Export Plug-In . SVG Version: 6.00 Build 0)  -->
<svg version="1.1" id="Layer_1" xmlns="http://www.w3.org/2000/svg" xmlns:xlink="http://www.w3.org/1999/xlink" x="0px" y="0px"
	 viewBox="0 0 148 260" style="enable-background:new 0 0 148 260;" xml:space="preserve">
<style type="text/css">
	.st0{fill:#EE2A25;}
	.st1{fill:#A71E22;}
	.st2{fill:#010101;}
	.st3{fill:#FFFFFF;}
	.st4{fill:#FAA625;}
	.st5{fill:#EDD59C;}
	.st6{fill:#3F2A13;}
	.st7{fill:#E5B96C;}
	.st8{fill:#4E4E4E;}
	.st9{fill:#818181;}
</style>
<g>
	<path class="st0" d="M121.28,77.4c0,26.39-19.75,42.77-45.86,42.77c-26.11,0-48.7-16.38-48.7-42.77c0-26.39,21.17-56.8,47.28-56.8
		C100.11,20.61,121.28,51.01,121.28,77.4"/>
	<path class="st1" d="M115.62,76.04c0,23.12-17.47,41.97-40.58,41.97c-23.1,0-43.1-18.85-43.1-41.97s18.73-41.87,41.84-41.87
		S115.62,52.92,115.62,76.04"/>
	<path class="st2" d="M67.21,238.65c-1.26-0.17-2.5-0.36-3.71-0.59c0.59-13.79,0.36-18.16,0.69-33.5
		c0.29-14.9,1.14-31.76,3.16-42.35c1.28,0.04,2.56,0.07,3.85,0.09c-2.51,7.71-4,25.76-4.54,42.35
		C66.1,221.6,66.5,228.08,67.21,238.65"/>
	<path class="st2" d="M95.23,238.65c1.26-0.17,2.5-0.36,3.71-0.59c-0.59-13.79-0.36-18.16-0.69-33.5
		c-0.29-14.9-1.14-31.76-3.16-42.35c-1.28,0.04-2.56,0.07-3.85,0.09c2.51,7.71,4,25.76,4.54,42.35
		C96.35,221.6,95.95,228.08,95.23,238.65"/>
	<path class="st2" d="M43.62,236.39c0-1.25,5.28-2.26,11.79-2.26c6.51,0,11.79,3.27,11.79,4.51s-5.28,0.55-11.79,0.55
		C48.9,239.2,43.62,237.64,43.62,236.39z"/>
	<path class="st2" d="M118.13,236.39c0-1.25-5.28-2.26-11.79-2.26c-6.51,0-11.79,3.27-11.79,4.51s5.28,0.55,11.79,0.55
		C112.85,239.2,118.13,237.64,118.13,236.39z"/>
	<path class="st2" d="M95.54,181.07c-9.35-2.52-23.61-1.72-29.84,2.41c0.34-8.04,0.89-15.34,1.63-21.05
		c8.62-0.15,17.37-0.18,26.04-0.09C94.36,165.75,95.08,172.6,95.54,181.07"/>
	<polygon class="st0" points="105.78,170.83 56.65,172.67 59.62,99.58 89.05,99.58 	"/>
	<path class="st3" d="M73.69,134.98c0.09,0.01,0.18,0.03,0.27,0.04l3.08-4.51c-2.62-0.58-5.69-1.1-9.28-1.56l3.11,10.61l2.91-4.26
		L73.69,134.98z"/>
	<path class="st4" d="M79.04,158.6l4.49-11.71c-0.72,0.49-1.46,0.96-2.19,1.4L79.04,158.6z"/>
	<path class="st3" d="M79.5,131.11l-1.68,4.65c2.13,0.53,3.53,1.15,4.39,1.82c1.95,1.52,1.12,3.28-0.44,4.79
		c-2,1.94-5.2,3.45-5.2,3.45l-0.55-2.08l-3.67,0.87l2.12,7.23c0,0,3.3-1.41,6.88-3.56c0.73-0.43,1.46-0.9,2.19-1.39
		C90.35,142.27,95.97,135.46,79.5,131.11"/>
	<path class="st4" d="M82.21,137.58l-5.3,0.69l0.91-2.51l1.68-4.65l3.22-8.91l-5.68,8.31l-3.08,4.51l-0.19,0.28l-2.91,4.26
		l-4.41,6.45l5.89-1.4l3.67-0.87l5.75-1.37C83.33,140.86,84.16,139.1,82.21,137.58"/>
	<g>
		<path class="st1" d="M67.61,152.08l0.81,11.59C68.42,163.66,72.17,156.19,67.61,152.08z"/>
		<path class="st1" d="M90.7,152.08v11.12C90.7,163.2,86.14,156.19,90.7,152.08z"/>
		<polygon class="st5" points="57.09,134.55 50.43,156.92 68.39,156.04 68.54,158.98 46.43,160.06 54.21,133.95 		"/>
		<polygon class="st0" points="54.21,133.95 59.13,117.43 61.94,118.27 57.09,134.55 		"/>
	</g>
	<g>
		<polygon class="st0" points="97.59,133.22 89.94,118.53 92.55,117.17 100.14,131.76 		"/>
		<polygon class="st5" points="100.14,131.76 113.04,156.58 90.34,158.24 90.09,155.31 108.41,154.03 97.59,133.22 		"/>
	</g>
	<path class="st5" d="M110.79,75.16c0,22.56-15.36,36.56-35.68,36.56c-20.31,0-37.89-14-37.89-36.56
		c0-22.56,16.47-40.85,36.79-40.85C94.32,34.31,110.79,52.6,110.79,75.16"/>
	<path class="st6" d="M56.89,39.01c2.97,4.88,11.46,8.4,21.47,8.4c7.29,0,13.76-1.87,17.9-4.76c-6.18-5.22-13.89-8.33-22.26-8.33
		C67.82,34.31,62,36.01,56.89,39.01z"/>
	<path class="st6" d="M65.96,103.72l-0.97-2.7c3.1,0.83,6.11,2.04,8.91,3.6c0.82-0.36,1.64-0.72,2.46-1.09
		c-0.14,0.31-0.13,0.69,0.04,1c1.29-0.56,2.73-0.76,4.1-1.11c3.19-0.8,6.14-2.42,8.46-4.66c-0.89,2.13-1.98,4.19-3.27,6.12
		c0.61-0.64,1.36-1.15,2.19-1.5c0.24,0.22,0.11,0.61-0.09,0.86c-0.2,0.24-0.48,0.48-0.49,0.79c-0.01,0.32,0.49,0.59,0.64,0.31
		c-1.31,4.06-3.57,7.81-6.56,10.91c-0.56-0.47-1.12-0.94-1.68-1.41c0.17,0.39,0.07,0.88-0.25,1.17c-0.4-0.46-1.01-0.74-1.62-0.76
		c-0.76,1.25-1.63,2.45-2.58,3.58c-1.71-1.01-2.87-2.83-3.04-4.73c-0.06-0.71,0-1.46-0.34-2.1c-0.29-0.56-0.83-0.95-1.34-1.33
		c-2.84-2.15-5.29-4.8-7.19-7.76c0.73,0.05,1.47,0.1,2.2,0.15L65.96,103.72z"/>
	<path class="st2" d="M53.88,63.35c0,0,12.81,4.56,22.1,5.81c9.29,1.25,22.57-0.05,22.57-0.05S72.77,100.3,53.88,63.35"/>
	<path class="st7" d="M65.62,62.32c0,0,7.11,1.18,12.26,1.51c5.16,0.32,12.53-0.01,12.53-0.01S76.11,71.9,65.62,62.32"/>
	<path class="st3" d="M70.86,72.61c-0.56,1.16-2.33,1.46-3.95,0.68c-1.61-0.78-2.47-2.36-1.9-3.52c0.56-1.16,2.33-1.46,3.95-0.68
		C70.57,69.88,71.43,71.45,70.86,72.61"/>
	<path class="st8" d="M74,39.75c19.93,0,36.14,16.36,36.76,36.79c0.01-0.46,0.03-0.91,0.03-1.37c0-22.56-16.47-40.85-36.79-40.85
		c-20.32,0-36.79,18.29-36.79,40.85c0,0.43,0.02,0.86,0.03,1.29C37.9,56.07,54.1,39.75,74,39.75"/>
	<g>
		<path class="st8" d="M104.74,73.02c0,8.31-0.78,15.05,3.79,15.05c2.09,0,4.47-1.81,6.43-4.55c0.43-2.38,0.66-4.86,0.66-7.47
			c0-4.12-0.61-8.1-1.71-11.86c-1.56-1.29-3.34-1.99-4.93-1.99c-2.73,0-3.25,2.8-3.31,6.9c-0.05-5.28,0.11-9.11,3.31-9.11
			c1.27,0,2.65,0.44,3.95,1.27c-0.32-0.84-0.66-1.66-1.03-2.48c-1.14-0.53-2.29-0.81-3.37-0.81
			C103.96,57.97,104.74,64.71,104.74,73.02z"/>
		<path class="st8" d="M40.19,94.09c4.51,0.32,3.84-6.25,3.68-14.67c-0.16-8.43,0.24-15.52-4.27-15.84
			c-2.14-0.15-4.56,0.81-6.5,2.75c-0.28,1.18-0.52,2.38-0.7,3.6c1.73-2.7,4.43-4.08,6.74-3.91c1.74,0.12,2.6,1.45,3.05,3.53
			c-0.6-0.66-1.43-1.05-2.58-1.11c-2.48-0.14-5.33,0.86-7.38,2.82c-0.18,1.57-0.28,3.17-0.28,4.8c0,5.37,1.09,10.26,3.04,14.62
			C36.68,92.67,38.54,93.97,40.19,94.09z"/>
		<path class="st9" d="M108.97,59.99c-3.2,0-3.37,3.83-3.31,9.11c0.06-4.11,0.58-6.9,3.31-6.9c1.59,0,3.37,0.7,4.93,1.99
			c-0.29-0.99-0.62-1.96-0.98-2.92C111.62,60.43,110.24,59.99,108.97,59.99z"/>
		<path class="st9" d="M39.61,68.42c1.15,0.06,1.98,0.46,2.58,1.11c-0.45-2.08-1.31-3.41-3.05-3.53c-2.31-0.17-5.02,1.21-6.74,3.91
			c-0.07,0.44-0.12,0.89-0.17,1.33C34.28,69.28,37.13,68.29,39.61,68.42z"/>
	</g>
</g>
</svg>
