<svg xmlns="http://www.w3.org/2000/svg" xmlns:xlink="http://www.w3.org/1999/xlink" width="148" height="260" viewBox="0 0 148 260">
  <defs>
    <clipPath id="clip-Artboard_1">
      <rect width="148" height="260"/>
    </clipPath>
  </defs>
  <g id="Artboard_1" data-name="Artboard 1" clip-path="url(#clip-Artboard_1)">
    <path id="Path_8" data-name="Path 8" d="M105.78,170.83l-49.13,1.84,3.729-60.53,15.808-4.5,15.971,3.178Z"/>
    <path id="Path_31" data-name="Path 31" d="M67.35,111.72l-5.389,13.925,2.762,1.208-2.762,5.377,6.405,17.6Z" transform="translate(0 -1)" fill="#333"/>
    <path id="Path_32" data-name="Path 32" d="M62.977,111.72l5.389,13.925-2.5,2.563,2.5,4.022-3.707,16.822Z" transform="translate(5.344 8.804) rotate(-9)" fill="#333"/>
    <rect id="Rectangle_1" data-name="Rectangle 1" width="3" height="3" transform="matrix(0.998, -0.07, 0.07, 0.998, 62.899, 156.108)" fill="#fff"/>
    <rect id="Rectangle_2" data-name="Rectangle 2" width="3" height="3" transform="matrix(0.998, -0.07, 0.07, 0.998, 95.899, 155.108)" fill="#fff"/>
    <path id="Path_30" data-name="Path 30" d="M90.051,158.218H62.068V109.945l18.5-1.254Z" transform="translate(4.729)" fill="#f2ecec"/>
    <path id="Path_3" data-name="Path 3" d="M67.21,238.65c-1.26-.17-2.5-.36-3.71-.59.59-13.79.36-18.16.69-33.5.29-14.9,1.14-31.76,3.16-42.35,1.28.04,2.56.07,3.85.09-2.51,7.71-4,25.76-4.54,42.35a275.464,275.464,0,0,0,.55,34" fill="#010101"/>
    <path id="Path_33" data-name="Path 33" d="M74.221,199.266l6.858,5.727,6.845-7.18-6.845-40.186h-4.6Z" transform="translate(-1 -48)" fill="#faa625"/>
    <path id="Path_4" data-name="Path 4" d="M95.23,238.65c1.26-.17,2.5-.36,3.71-.59-.59-13.79-.36-18.16-.69-33.5-.29-14.9-1.14-31.76-3.16-42.35-1.28.04-2.56.07-3.85.09,2.51,7.71,4,25.76,4.54,42.35a271.52,271.52,0,0,1-.55,34" fill="#010101"/>
    <path id="Path_5" data-name="Path 5" d="M43.62,236.39c0-1.25,5.28-2.26,11.79-2.26s11.79,3.27,11.79,4.51-5.28.55-11.79.55S43.62,237.64,43.62,236.39Z" fill="#010101"/>
    <path id="Path_6" data-name="Path 6" d="M118.13,236.39c0-1.25-5.28-2.26-11.79-2.26s-11.79,3.27-11.79,4.51,5.28.55,11.79.55S118.13,237.64,118.13,236.39Z" fill="#010101"/>
    <path id="Path_15" data-name="Path 15" d="M62.023,118.372,50.43,156.92l13.391-1.354v3.952l-17.391.542,14.376-46.7Z" stroke="rgba(0,0,0,0)" stroke-width="1"/>
    <path id="Path_18" data-name="Path 18" d="M91.726,114.526,113.04,156.58l-14.276,2.43-.928-4.483,10.575-.5-15.1-32.625Z" stroke="rgba(0,0,0,0)" stroke-width="1"/>
    <path id="Path_19" data-name="Path 19" d="M75.11,111.72c-17.037.053-31.855-18.019-31.855-40.579S53.69,34.31,74.01,34.31s36.78,12.558,36.78,35.118S92.147,111.667,75.11,111.72Z" fill="#edd59c"/>
    <path id="Path_22" data-name="Path 22" d="M53.88,63.35s12.81,4.56,22.1,5.81,22.57-.05,22.57-.05S72.77,100.3,53.88,63.35" fill="#010101"/>
    <path id="Path_23" data-name="Path 23" d="M65.62,62.32s7.11,1.18,12.26,1.51,12.53-.01,12.53-.01-14.3,8.08-24.79-1.5" fill="#e5b96c"/>
    <path id="Path_24" data-name="Path 24" d="M70.86,72.61c-.56,1.16-2.33,1.46-3.95.68s-2.47-2.36-1.9-3.52,2.33-1.46,3.95-.68,2.47,2.36,1.9,3.52" fill="#fff"/>
    <path id="Path_7" data-name="Path 7" d="M97.769,185.764c-10.049-3.15-25.374-2.15-32.07,3.012.365-10.049.956-19.174,1.752-26.311,9.264-.187,18.668-.225,27.986-.112,1.064,4.262,1.838,12.824,2.332,23.411" transform="translate(-0.755 -5.296)" fill="#010101"/>
    <path id="Path_34" data-name="Path 34" d="M74.01,37.871C56.973,37.925,43.7,62.2,44.637,58.055,47.974,43.307,57.876,34.31,74.01,34.31c16.613,0,30.657,8.4,35.3,24.1C110.244,61.548,91.047,37.818,74.01,37.871Z" fill="#bc8e30"/>
    <path id="Path_20" data-name="Path 20" d="M56.89,39.789c3.216,5.691,12.409,9.8,23.248,9.8,7.894,0,14.9-2.181,19.382-5.551a35.685,35.685,0,0,0-24.1-9.714A34.359,34.359,0,0,0,56.89,39.789Z" transform="translate(0 -1.175)" fill="#3f2a13" stroke="rgba(0,0,0,0)" stroke-width="1"/>
  </g>
</svg>
