<?xml version="1.0" encoding="utf-8"?>
<!-- Generator: Adobe Illustrator 15.0.0, SVG Export Plug-In . SVG Version: 6.00 Build 0)  -->
<!DOCTYPE svg PUBLIC "-//W3C//DTD SVG 1.1//EN" "http://www.w3.org/Graphics/SVG/1.1/DTD/svg11.dtd">
<svg version="1.1" id="Layer_1" xmlns="http://www.w3.org/2000/svg" xmlns:xlink="http://www.w3.org/1999/xlink" x="0px" y="0px"
	 width="120px" height="120px" viewBox="0 0 120 120" enable-background="new 0 0 120 120" xml:space="preserve">
<g>
	<path fill="#FD1A16" d="M45.049,42.414c0.298,0.042,0.577,0.086,0.872,0.129l9.862-14.445c-8.383-1.85-18.224-3.531-29.725-5
		l9.952,33.955l9.307-13.628L45.049,42.414z"/>
	<path fill="#FEA621" d="M62.187,118.02l14.392-37.482c-2.322,1.572-4.684,3.063-7.012,4.461L62.187,118.02z"/>
	<path fill="#FD1A16" d="M63.653,30.01l-5.382,14.886c6.811,1.697,11.309,3.688,14.065,5.834c6.236,4.856,3.571,10.502-1.411,15.321
		c-6.414,6.204-16.658,11.034-16.658,11.034l-1.766-6.646l-11.748,2.796L47.544,96.4c0,0,10.557-4.521,22.024-11.401
		c2.326-1.398,4.688-2.89,7.01-4.462C98.404,65.743,116.391,43.928,63.653,30.01"/>
	<path fill="#FEA621" d="M72.338,50.73l-16.971,2.201l2.903-8.035l5.383-14.886L73.965,1.48L55.784,28.099l-9.863,14.444
		l-0.604,0.881L36.01,57.052L21.892,77.726l18.862-4.491l11.748-2.797l18.424-4.387C75.908,61.232,78.573,55.587,72.338,50.73"/>
</g>
</svg>
