<?xml version="1.0" encoding="utf-8"?>
<!-- Generator: Adobe Illustrator 15.0.0, SVG Export Plug-In . SVG Version: 6.00 Build 0)  -->
<!DOCTYPE svg PUBLIC "-//W3C//DTD SVG 1.1//EN" "http://www.w3.org/Graphics/SVG/1.1/DTD/svg11.dtd">
<svg version="1.1" id="Layer_1" xmlns="http://www.w3.org/2000/svg" xmlns:xlink="http://www.w3.org/1999/xlink" x="0px" y="0px"
	 width="80px" height="80px" viewBox="0 0 80 80" enable-background="new 0 0 80 80" xml:space="preserve">
<g>
	<path fill="#FFFFFF" d="M29.971,28.333c0.2,0.028,0.387,0.058,0.585,0.087l6.616-9.689c-5.623-1.241-12.224-2.369-19.94-3.355
		l6.676,22.777l6.244-9.142L29.971,28.333z"/>
	<path fill="#FEA621" d="M41.467,79.049l9.654-25.143c-1.558,1.055-3.143,2.055-4.703,2.993L41.467,79.049z"/>
	<path fill="#FFFFFF" d="M42.45,20.013l-3.61,9.986c4.569,1.139,7.586,2.474,9.436,3.914c4.184,3.258,2.396,7.044-0.946,10.277
		c-4.303,4.161-11.174,7.402-11.174,7.402l-1.185-4.458l-7.88,1.875l4.555,15.539c0,0,7.081-3.032,14.774-7.648
		c1.56-0.938,3.145-1.938,4.702-2.993C65.762,43.982,77.825,29.349,42.45,20.013"/>
	<path fill="#FEA621" d="M48.275,33.912l-11.383,1.476l1.947-5.39l3.611-9.986l6.917-19.137L37.171,18.731l-6.616,9.688
		l-0.405,0.591l-6.244,9.141l-9.47,13.869l12.652-3.013l7.88-1.876l12.359-2.943C50.671,40.956,52.459,37.17,48.275,33.912"/>
</g>
</svg>
